<?xml version="1.0" encoding="utf-8" standalone="no"?>
<!DOCTYPE svg PUBLIC "-//W3C//DTD SVG 1.1//EN"
  "http://www.w3.org/Graphics/SVG/1.1/DTD/svg11.dtd">
<svg xmlns:xlink="http://www.w3.org/1999/xlink" width="1008pt" height="648pt" viewBox="0 0 1008 648" xmlns="http://www.w3.org/2000/svg" version="1.1">
 <metadata>
  <rdf:RDF xmlns:dc="http://purl.org/dc/elements/1.1/" xmlns:cc="http://creativecommons.org/ns#" xmlns:rdf="http://www.w3.org/1999/02/22-rdf-syntax-ns#">
   <cc:Work>
    <dc:type rdf:resource="http://purl.org/dc/dcmitype/StillImage"/>
    <dc:date>2026-10-08T15:58:29.680218</dc:date>
    <dc:format>image/svg+xml</dc:format>
    <dc:creator>
     <cc:Agent>
      <dc:title>Matplotlib v3.11.2, https://matplotlib.org/</dc:title>
     </cc:Agent>
    </dc:creator>
   </cc:Work>
  </rdf:RDF>
 </metadata>
 <defs>
  <style type="text/css">*{stroke-linejoin: round; stroke-linecap: butt}</style>
 </defs>
 <g id="figure_1">
  <g id="patch_1">
   <path d="M 0 648 
L 1008 648 
L 1008 0 
L 0 0 
z
" style="fill: #ffffff"/>
  </g>
  <g id="axes_1">
   <g id="patch_2">
    <path d="M 90.72 532.656 
L 433.44 532.656 
L 433.44 370.656 
L 90.72 370.656 
z
" style="fill: #ffffff"/>
   </g>
   <g id="PathCollection_1">
    <defs>
     <path id="md4f84b6935" d="M 0 3.354102 
C 0.889518 3.354102 1.742724 3.000693 2.371708 2.371708 
C 3.000693 1.742724 3.354102 0.889518 3.354102 0 
C 3.354102 -0.889518 3.000693 -1.742724 2.371708 -2.371708 
C 1.742724 -3.000693 0.889518 -3.354102 0 -3.354102 
C -0.889518 -3.354102 -1.742724 -3.000693 -2.371708 -2.371708 
C -3.000693 -1.742724 -3.354102 -0.889518 -3.354102 0 
C -3.354102 0.889518 -3.000693 1.742724 -2.371708 2.371708 
C -1.742724 3.000693 -0.889518 3.354102 0 3.354102 
z
" style="stroke: #ad5626"/>
    </defs>
    <g clip-path="url(#pf5eb446df8)">
     <use xlink:href="#md4f84b6935" x="90.72" y="385.383273" style="fill: #ad5626; stroke: #ad5626"/>
     <use xlink:href="#md4f84b6935" x="417.12" y="478.477391" style="fill: #ad5626; stroke: #ad5626"/>
    </g>
   </g>
   <g id="matplotlib.axis_1">
    <g id="xtick_1">
     <g id="line2d_1">
      <defs>
       <path id="m01b77faa60" d="M 0 0 
L 0 3 
" style="stroke: #697580; stroke-width: 0.8"/>
      </defs>
      <g>
       <use xlink:href="#m01b77faa60" x="90.72" y="532.656" style="fill: #697580; stroke: #697580; stroke-width: 0.8"/>
      </g>
     </g>
     <g id="text_1">
      <!-- 0.0 -->
      <g style="fill: #697580" transform="translate(81.531641 549.712152) scale(0.13 -0.13)">
       <defs>
        <path id="MicrosoftYaHei-16" d="M 284 2325 
Q 284 3606 709 4264 
Q 1134 4922 1941 4922 
Q 3478 4922 3478 2441 
Q 3478 1216 3045 567 
Q 2613 -81 1831 -81 
Q 1094 -81 689 534 
Q 284 1150 284 2325 
z
M 909 2353 
Q 909 425 1888 425 
Q 2850 425 2850 2384 
Q 2850 4413 1906 4413 
Q 909 4413 909 2353 
z
" transform="scale(0.015625)"/>
        <path id="MicrosoftYaHei-14" d="M 372 322 
Q 372 491 487 606 
Q 603 722 775 722 
Q 950 722 1065 605 
Q 1181 488 1181 322 
Q 1181 159 1065 42 
Q 950 -75 772 -75 
Q 600 -75 486 42 
Q 372 159 372 322 
z
" transform="scale(0.015625)"/>
       </defs>
       <use xlink:href="#MicrosoftYaHei-16"/>
       <use xlink:href="#MicrosoftYaHei-14" transform="translate(58.640625 0)"/>
       <use xlink:href="#MicrosoftYaHei-16" transform="translate(82.71875 0)"/>
      </g>
     </g>
    </g>
    <g id="xtick_2">
     <g id="line2d_2">
      <g>
       <use xlink:href="#m01b77faa60" x="253.92" y="532.656" style="fill: #697580; stroke: #697580; stroke-width: 0.8"/>
      </g>
     </g>
     <g id="text_2">
      <!-- 0.5 -->
      <g style="fill: #697580" transform="translate(244.731641 549.712152) scale(0.13 -0.13)">
       <defs>
        <path id="MicrosoftYaHei-1b" d="M 3294 1494 
Q 3294 784 2823 350 
Q 2353 -84 1559 -84 
Q 878 -84 544 119 
L 544 744 
Q 1034 425 1544 425 
Q 2050 425 2361 704 
Q 2672 984 2672 1447 
Q 2672 1909 2348 2167 
Q 2025 2425 1434 2425 
Q 978 2425 613 2384 
L 791 4841 
L 3053 4841 
L 3053 4303 
L 1306 4303 
L 1206 2931 
L 1647 2950 
Q 2416 2950 2855 2567 
Q 3294 2184 3294 1494 
z
" transform="scale(0.015625)"/>
       </defs>
       <use xlink:href="#MicrosoftYaHei-16"/>
       <use xlink:href="#MicrosoftYaHei-14" transform="translate(58.640625 0)"/>
       <use xlink:href="#MicrosoftYaHei-1b" transform="translate(82.71875 0)"/>
      </g>
     </g>
    </g>
    <g id="xtick_3">
     <g id="line2d_3">
      <g>
       <use xlink:href="#m01b77faa60" x="417.12" y="532.656" style="fill: #697580; stroke: #697580; stroke-width: 0.8"/>
      </g>
     </g>
     <g id="text_3">
      <!-- 1.0 -->
      <g style="fill: #697580" transform="translate(407.931641 549.712152) scale(0.13 -0.13)">
       <defs>
        <path id="MicrosoftYaHei-17" d="M 1781 0 
L 1781 4141 
Q 1638 3997 1295 3819 
Q 953 3641 663 3569 
L 663 4169 
Q 1047 4275 1484 4508 
Q 1922 4741 2156 4947 
L 2388 4947 
L 2388 0 
L 1781 0 
z
" transform="scale(0.015625)"/>
       </defs>
       <use xlink:href="#MicrosoftYaHei-17"/>
       <use xlink:href="#MicrosoftYaHei-14" transform="translate(58.640625 0)"/>
       <use xlink:href="#MicrosoftYaHei-16" transform="translate(82.71875 0)"/>
      </g>
     </g>
    </g>
    <g id="text_4">
     <!-- $t$ -->
     <g transform="translate(259.56 575.622797) scale(0.18 -0.18)">
      <defs>
       <path id="STIXGeneral-Italic-57" d="M 1894 2739 
L 1862 2534 
L 1325 2534 
L 768 435 
Q 755 384 755 346 
Q 755 243 851 243 
Q 928 243 1030 342 
Q 1133 442 1370 749 
L 1453 704 
Q 1158 256 969 93 
Q 781 -70 538 -70 
Q 243 -70 243 166 
Q 243 230 346 640 
L 845 2534 
L 365 2534 
L 358 2573 
Q 358 2688 570 2733 
Q 730 2771 992 2979 
Q 1254 3187 1421 3437 
Q 1459 3494 1510 3494 
Q 1568 3494 1568 3443 
Q 1568 3411 1562 3398 
L 1382 2739 
L 1894 2739 
z
" transform="scale(0.015625)"/>
      </defs>
      <use xlink:href="#STIXGeneral-Italic-57" transform="translate(0 0.40625)"/>
     </g>
    </g>
   </g>
   <g id="matplotlib.axis_2">
    <g id="ytick_1">
     <g id="line2d_4">
      <defs>
       <path id="m3d7fa7df2a" d="M 0 0 
L -3 0 
" style="stroke: #697580; stroke-width: 0.8"/>
      </defs>
      <g>
       <use xlink:href="#m3d7fa7df2a" x="90.72" y="532.656" style="fill: #697580; stroke: #697580; stroke-width: 0.8"/>
      </g>
     </g>
     <g id="text_5">
      <!-- 0 -->
      <g style="fill: #697580" transform="translate(76.596719 537.934076) scale(0.13 -0.13)">
       <use xlink:href="#MicrosoftYaHei-16"/>
      </g>
     </g>
    </g>
    <g id="ytick_2">
     <g id="line2d_5">
      <g>
       <use xlink:href="#m3d7fa7df2a" x="90.72" y="459.019636" style="fill: #697580; stroke: #697580; stroke-width: 0.8"/>
      </g>
     </g>
     <g id="text_6">
      <!-- 1 -->
      <g style="fill: #697580" transform="translate(76.596719 464.297713) scale(0.13 -0.13)">
       <use xlink:href="#MicrosoftYaHei-17"/>
      </g>
     </g>
    </g>
    <g id="ytick_3">
     <g id="line2d_6">
      <g>
       <use xlink:href="#m3d7fa7df2a" x="90.72" y="385.383273" style="fill: #697580; stroke: #697580; stroke-width: 0.8"/>
      </g>
     </g>
     <g id="text_7">
      <!-- 2 -->
      <g style="fill: #697580" transform="translate(76.596719 390.661349) scale(0.13 -0.13)">
       <defs>
        <path id="MicrosoftYaHei-18" d="M 2666 3572 
Q 2666 3963 2419 4186 
Q 2172 4409 1747 4409 
Q 1447 4409 1140 4256 
Q 834 4103 569 3819 
L 569 4413 
Q 806 4659 1107 4790 
Q 1409 4922 1816 4922 
Q 2472 4922 2872 4570 
Q 3272 4219 3272 3619 
Q 3272 3084 3026 2693 
Q 2781 2303 2188 1894 
Q 1581 1475 1376 1294 
Q 1172 1113 1090 947 
Q 1009 781 1009 544 
L 3416 544 
L 3416 0 
L 372 0 
L 372 241 
Q 372 659 486 951 
Q 600 1244 862 1520 
Q 1125 1797 1681 2184 
Q 2250 2584 2458 2886 
Q 2666 3188 2666 3572 
z
" transform="scale(0.015625)"/>
       </defs>
       <use xlink:href="#MicrosoftYaHei-18"/>
      </g>
     </g>
    </g>
    <g id="text_8">
     <!-- $X_t$ -->
     <g transform="translate(55.856719 447.094477) scale(0.18 -0.18)">
      <defs>
       <path id="STIXGeneral-Italic-3b" d="M 4192 4179 
L 4192 4077 
Q 3981 4006 3805 3875 
Q 3629 3744 3392 3469 
L 2310 2227 
L 2957 595 
Q 3072 307 3187 224 
Q 3302 141 3629 102 
L 3629 0 
L 1894 0 
L 1894 102 
Q 2170 109 2278 163 
Q 2387 218 2387 339 
Q 2387 442 2298 666 
L 1869 1722 
L 902 621 
Q 755 454 755 314 
Q 755 102 1178 102 
L 1178 0 
L -186 0 
L -186 102 
Q 70 147 300 361 
Q 531 576 1222 1382 
L 1754 2003 
L 1094 3635 
Q 998 3872 880 3961 
Q 762 4051 486 4077 
L 486 4179 
L 2170 4179 
L 2170 4077 
Q 1907 4045 1811 3990 
Q 1715 3936 1715 3814 
Q 1715 3706 1818 3456 
L 2195 2515 
L 3123 3584 
Q 3258 3738 3258 3859 
Q 3258 4058 2867 4077 
L 2867 4179 
L 4192 4179 
z
" transform="scale(0.015625)"/>
      </defs>
      <use xlink:href="#STIXGeneral-Italic-3b" transform="translate(0 0.703125)"/>
      <use xlink:href="#STIXGeneral-Italic-57" transform="translate(61.099945 -14.296875) scale(0.7)"/>
     </g>
    </g>
   </g>
   <g id="line2d_7">
    <path d="M 90.72 385.383273 
L 103.484246 391.031384 
L 116.248492 396.462882 
L 130.836201 402.41571 
L 145.423911 408.108348 
L 160.01162 413.552168 
L 174.59933 418.758045 
L 189.187039 423.73638 
L 203.774749 428.497118 
L 220.185922 433.604679 
L 236.597095 438.461784 
L 253.008268 443.080714 
L 269.419441 447.47315 
L 285.830615 451.650197 
L 304.065251 456.051573 
L 322.299888 460.213804 
L 340.534525 464.149884 
L 358.769162 467.872101 
L 378.827263 471.733377 
L 398.885363 475.364511 
L 417.12 478.477391 
L 417.12 478.477391 
" clip-path="url(#pf5eb446df8)" style="fill: none; stroke: #285f9b; stroke-width: 2.7; stroke-linecap: square"/>
   </g>
   <g id="patch_3">
    <path d="M 90.72 532.656 
L 90.72 370.656 
" style="fill: none; stroke: #abb4bd; stroke-width: 0.8; stroke-linejoin: miter; stroke-linecap: square"/>
   </g>
   <g id="patch_4">
    <path d="M 90.72 532.656 
L 433.44 532.656 
" style="fill: none; stroke: #abb4bd; stroke-width: 0.8; stroke-linejoin: miter; stroke-linecap: square"/>
   </g>
   <g id="patch_5">
    <path d="M 353.484085 438.904998 
Q 384.453382 458.16345 415.42268 477.421902 
" style="fill: none; stroke: #ad5626; stroke-width: 0.8; stroke-linecap: round"/>
   </g>
   <g id="text_9">
    <!-- $2e^{-1}\approx0.7358$ -->
    <g style="fill: #ad5626" transform="translate(276.768 431.037818) scale(0.19 -0.19)">
     <defs>
      <path id="STIXGeneral-Regular-15" d="M 3034 877 
L 2688 0 
L 186 0 
L 186 77 
L 1325 1286 
Q 1773 1754 1965 2144 
Q 2157 2534 2157 2950 
Q 2157 3379 1920 3616 
Q 1683 3853 1267 3853 
Q 922 3853 720 3673 
Q 518 3494 326 3021 
L 192 3053 
Q 301 3648 630 3987 
Q 960 4326 1523 4326 
Q 2054 4326 2380 4006 
Q 2707 3686 2707 3200 
Q 2707 2477 1888 1613 
L 832 486 
L 2330 486 
Q 2541 486 2665 569 
Q 2790 653 2944 915 
L 3034 877 
z
" transform="scale(0.015625)"/>
      <path id="STIXGeneral-Italic-48" d="M 2291 698 
L 2368 621 
Q 1805 -70 1062 -70 
Q 672 -70 435 170 
Q 198 410 198 806 
Q 198 1555 796 2188 
Q 1395 2822 2112 2822 
Q 2362 2822 2499 2707 
Q 2637 2592 2637 2387 
Q 2637 1965 2147 1632 
Q 1658 1299 819 1190 
Q 755 1062 755 800 
Q 755 538 918 378 
Q 1082 218 1350 218 
Q 1562 218 1754 317 
Q 1946 416 2291 698 
z
M 973 1613 
L 864 1331 
Q 1581 1504 1894 1805 
Q 2214 2112 2214 2426 
Q 2214 2675 1990 2675 
Q 1722 2675 1430 2364 
Q 1139 2054 973 1613 
z
" transform="scale(0.015625)"/>
      <path id="STIXGeneral-Regular-425" d="M 3974 1408 
L 410 1408 
L 410 1830 
L 3974 1830 
L 3974 1408 
z
" transform="scale(0.015625)"/>
      <path id="STIXGeneral-Regular-14" d="M 2522 0 
L 755 0 
L 755 96 
Q 1107 115 1235 227 
Q 1363 339 1363 608 
L 1363 3482 
Q 1363 3795 1171 3795 
Q 1082 3795 883 3718 
L 710 3654 
L 710 3744 
L 1856 4326 
L 1914 4307 
L 1914 486 
Q 1914 275 2042 185 
Q 2170 96 2522 96 
L 2522 0 
z
" transform="scale(0.015625)"/>
      <path id="STIXGeneral-Regular-45b" d="M 3866 3040 
L 4077 3040 
Q 4045 2566 3769 2150 
Q 3494 1734 3066 1734 
Q 2803 1734 2460 1939 
Q 2118 2144 1804 2349 
Q 1491 2554 1306 2554 
Q 992 2554 800 2304 
Q 608 2054 518 1670 
L 307 1670 
Q 333 2189 617 2582 
Q 902 2976 1350 2976 
Q 1613 2976 1955 2771 
Q 2298 2566 2611 2361 
Q 2925 2157 3117 2157 
Q 3680 2157 3866 3040 
z
M 3866 1530 
L 4077 1530 
Q 4045 1056 3769 640 
Q 3494 224 3066 224 
Q 2803 224 2460 429 
Q 2118 634 1804 838 
Q 1491 1043 1306 1043 
Q 992 1043 800 793 
Q 608 544 518 160 
L 307 160 
Q 333 678 617 1072 
Q 902 1466 1350 1466 
Q 1613 1466 1955 1261 
Q 2298 1056 2611 851 
Q 2925 646 3117 646 
Q 3680 646 3866 1530 
z
" transform="scale(0.015625)"/>
      <path id="STIXGeneral-Regular-13" d="M 3046 2112 
Q 3046 1683 2963 1302 
Q 2880 922 2717 602 
Q 2554 282 2266 96 
Q 1978 -90 1600 -90 
Q 1210 -90 915 108 
Q 621 307 461 640 
Q 301 973 227 1350 
Q 154 1728 154 2150 
Q 154 2746 301 3222 
Q 448 3699 790 4012 
Q 1133 4326 1626 4326 
Q 2253 4326 2649 3712 
Q 3046 3098 3046 2112 
z
M 2432 2080 
Q 2432 3091 2217 3625 
Q 2003 4160 1587 4160 
Q 1190 4160 979 3622 
Q 768 3085 768 2106 
Q 768 1120 979 598 
Q 1190 77 1600 77 
Q 2003 77 2217 598 
Q 2432 1120 2432 2080 
z
" transform="scale(0.015625)"/>
      <path id="STIXGeneral-Regular-11" d="M 1158 275 
Q 1158 134 1052 32 
Q 947 -70 800 -70 
Q 653 -70 550 32 
Q 448 134 448 281 
Q 448 429 553 534 
Q 659 640 806 640 
Q 947 640 1052 531 
Q 1158 422 1158 275 
z
" transform="scale(0.015625)"/>
      <path id="STIXGeneral-Regular-1a" d="M 2874 4134 
L 1517 -51 
L 1101 -51 
L 2368 3763 
L 992 3763 
Q 717 3763 582 3667 
Q 448 3571 243 3238 
L 128 3296 
L 512 4237 
L 2874 4237 
L 2874 4134 
z
" transform="scale(0.015625)"/>
      <path id="STIXGeneral-Regular-16" d="M 390 3264 
L 288 3290 
Q 435 3770 748 4048 
Q 1062 4326 1542 4326 
Q 1990 4326 2265 4083 
Q 2541 3840 2541 3450 
Q 2541 2925 1946 2566 
Q 2298 2413 2477 2227 
Q 2758 1914 2758 1402 
Q 2758 890 2464 506 
Q 2246 211 1840 60 
Q 1434 -90 979 -90 
Q 262 -90 262 275 
Q 262 378 339 442 
Q 416 506 525 506 
Q 685 506 915 339 
Q 1197 141 1466 141 
Q 1818 141 2058 425 
Q 2298 710 2298 1120 
Q 2298 1856 1632 2048 
Q 1434 2112 979 2112 
L 979 2202 
Q 1338 2323 1517 2432 
Q 2035 2726 2035 3290 
Q 2035 3610 1852 3776 
Q 1670 3942 1344 3942 
Q 768 3942 390 3264 
z
" transform="scale(0.015625)"/>
      <path id="STIXGeneral-Regular-18" d="M 2803 4358 
L 2573 3814 
Q 2534 3731 2400 3731 
L 1158 3731 
L 902 3187 
Q 1606 3053 1920 2896 
Q 2234 2739 2502 2368 
Q 2726 2061 2726 1555 
Q 2726 1094 2576 780 
Q 2426 467 2099 224 
Q 1664 -90 1011 -90 
Q 646 -90 422 19 
Q 198 128 198 307 
Q 198 550 486 550 
Q 717 550 960 352 
Q 1210 147 1414 147 
Q 1747 147 2012 480 
Q 2278 813 2278 1229 
Q 2278 1843 1850 2189 
Q 1293 2637 486 2637 
Q 410 2637 410 2688 
L 416 2720 
L 1114 4237 
L 2438 4237 
Q 2547 4237 2608 4269 
Q 2669 4301 2746 4403 
L 2803 4358 
z
" transform="scale(0.015625)"/>
      <path id="STIXGeneral-Regular-1b" d="M 2848 992 
Q 2848 499 2505 204 
Q 2163 -90 1587 -90 
Q 1050 -90 704 204 
Q 358 499 358 954 
Q 358 1293 524 1533 
Q 691 1773 1190 2125 
Q 710 2522 553 2765 
Q 397 3008 397 3328 
Q 397 3782 745 4054 
Q 1094 4326 1638 4326 
Q 2106 4326 2410 4060 
Q 2714 3795 2714 3411 
Q 2714 3059 2531 2848 
Q 2349 2637 1856 2374 
Q 2432 1990 2640 1689 
Q 2848 1389 2848 992 
z
M 2272 3411 
Q 2272 3744 2086 3945 
Q 1901 4147 1574 4147 
Q 1248 4147 1059 3977 
Q 870 3808 870 3513 
Q 870 3219 1059 2979 
Q 1248 2739 1670 2490 
Q 1997 2682 2134 2896 
Q 2272 3110 2272 3411 
z
M 1734 1741 
L 1357 1997 
Q 1075 1766 960 1545 
Q 845 1325 845 1011 
Q 845 576 1065 333 
Q 1286 90 1658 90 
Q 1971 90 2166 285 
Q 2362 480 2362 794 
Q 2362 1082 2214 1299 
Q 2067 1517 1734 1741 
z
" transform="scale(0.015625)"/>
     </defs>
     <use xlink:href="#STIXGeneral-Regular-15" transform="translate(0 0.384375)"/>
     <use xlink:href="#STIXGeneral-Italic-48" transform="translate(49.999954 0.384375)"/>
     <use xlink:href="#STIXGeneral-Regular-425" transform="translate(100.509605 41.684375) scale(0.7)"/>
     <use xlink:href="#STIXGeneral-Regular-14" transform="translate(148.459562 41.684375) scale(0.7)"/>
     <use xlink:href="#STIXGeneral-Regular-45b" transform="translate(207.95953 0.384375)"/>
     <use xlink:href="#STIXGeneral-Regular-13" transform="translate(296.459469 0.384375)"/>
     <use xlink:href="#STIXGeneral-Regular-11" transform="translate(346.459424 0.384375)"/>
     <use xlink:href="#STIXGeneral-Regular-1a" transform="translate(371.459393 0.384375)"/>
     <use xlink:href="#STIXGeneral-Regular-16" transform="translate(421.459347 0.384375)"/>
     <use xlink:href="#STIXGeneral-Regular-18" transform="translate(471.459301 0.384375)"/>
     <use xlink:href="#STIXGeneral-Regular-1b" transform="translate(521.459256 0.384375)"/>
    </g>
   </g>
   <g id="text_10">
    <!-- $\theta=1,\quad x_0=2$ -->
    <g transform="translate(202.68 362.656) scale(0.2 -0.2)">
     <defs>
      <path id="STIXGeneral-Italic-207" d="M 3162 3270 
Q 3162 2534 2925 1862 
Q 2688 1190 2304 678 
Q 1741 -70 992 -70 
Q 608 -70 390 224 
Q 173 518 173 1030 
Q 173 1997 592 2813 
Q 1011 3629 1594 4070 
Q 1952 4339 2374 4339 
Q 2733 4339 2947 4076 
Q 3162 3814 3162 3270 
z
M 941 2221 
L 2432 2221 
Q 2624 2874 2624 3533 
Q 2624 4205 2285 4205 
Q 2029 4205 1728 3814 
Q 1427 3424 1232 2992 
Q 1037 2560 941 2221 
z
M 2387 2016 
L 896 2016 
Q 710 1530 710 960 
Q 710 64 1069 64 
Q 1286 64 1510 275 
Q 1734 486 1904 806 
Q 2074 1126 2198 1440 
Q 2323 1754 2387 2016 
z
" transform="scale(0.015625)"/>
      <path id="STIXGeneral-Regular-20" d="M 4077 2048 
L 307 2048 
L 307 2470 
L 4077 2470 
L 4077 2048 
z
M 4077 768 
L 307 768 
L 307 1190 
L 4077 1190 
L 4077 768 
z
" transform="scale(0.015625)"/>
      <path id="STIXGeneral-Regular-f" d="M 531 -902 
L 467 -781 
Q 998 -422 998 -96 
Q 998 -13 909 -13 
Q 883 -13 822 -25 
Q 762 -38 723 -38 
Q 352 -38 352 288 
Q 352 454 457 553 
Q 563 653 736 653 
Q 954 653 1101 496 
Q 1248 339 1248 96 
Q 1248 -198 1053 -473 
Q 858 -749 531 -902 
z
" transform="scale(0.015625)"/>
      <path id="STIXGeneral-Italic-5b" d="M 1555 2272 
L 1632 1907 
Q 1971 2426 2179 2624 
Q 2387 2822 2598 2822 
Q 2714 2822 2787 2755 
Q 2861 2688 2861 2585 
Q 2861 2483 2800 2419 
Q 2739 2355 2643 2355 
Q 2586 2355 2490 2409 
Q 2394 2464 2310 2464 
Q 2125 2464 1683 1690 
Q 1683 1606 1734 1402 
L 1939 544 
Q 2003 282 2131 282 
Q 2234 282 2432 538 
Q 2451 563 2476 598 
Q 2502 634 2521 662 
Q 2541 691 2566 717 
L 2662 659 
Q 2387 230 2227 80 
Q 2067 -70 1882 -70 
Q 1728 -70 1645 26 
Q 1562 122 1504 365 
L 1318 1126 
L 755 365 
Q 557 96 432 13 
Q 307 -70 147 -70 
Q 0 -70 -86 0 
Q -173 70 -173 198 
Q -173 294 -112 361 
Q -51 429 45 429 
Q 122 429 250 358 
Q 346 301 416 301 
Q 525 301 742 614 
L 1267 1357 
L 1088 2150 
Q 1024 2432 969 2509 
Q 915 2586 794 2586 
Q 717 2586 544 2541 
L 429 2509 
L 410 2611 
L 480 2637 
Q 992 2822 1229 2822 
Q 1350 2822 1420 2707 
Q 1491 2592 1555 2272 
z
" transform="scale(0.015625)"/>
     </defs>
     <use xlink:href="#STIXGeneral-Italic-207" transform="translate(0 0.203125)"/>
     <use xlink:href="#STIXGeneral-Regular-20" transform="translate(67.999954 0.203125)"/>
     <use xlink:href="#STIXGeneral-Regular-14" transform="translate(156.499893 0.203125)"/>
     <use xlink:href="#STIXGeneral-Regular-f" transform="translate(206.499847 0.203125)"/>
     <use xlink:href="#STIXGeneral-Italic-5b" transform="translate(351.499817 0.203125)"/>
     <use xlink:href="#STIXGeneral-Regular-13" transform="translate(395.89978 -14.796875) scale(0.7)"/>
     <use xlink:href="#STIXGeneral-Regular-20" transform="translate(455.399748 0.203125)"/>
     <use xlink:href="#STIXGeneral-Regular-15" transform="translate(543.899687 0.203125)"/>
    </g>
   </g>
  </g>
  <g id="line2d_8">
   <path d="M 50.4 119.232 
L 957.6 119.232 
" style="fill: none; stroke: #dbe2e8; stroke-linecap: square"/>
  </g>
  <g id="text_11">
   <!-- Example 4 · Linear Vector Fields -->
   <g style="fill: #697580" transform="translate(50.4 39.550156) scale(0.14 -0.14)">
    <defs>
     <path id="MicrosoftYaHei-2b" d="M 3228 0 
L 625 0 
L 625 4841 
L 3119 4841 
L 3119 4284 
L 1250 4284 
L 1250 2734 
L 2981 2734 
L 2981 2181 
L 1250 2181 
L 1250 553 
L 3228 553 
L 3228 0 
z
" transform="scale(0.015625)"/>
     <path id="MicrosoftYaHei-5e" d="M 3163 3456 
L 2006 1716 
L 3147 0 
L 2434 0 
L 1775 1100 
Q 1722 1188 1625 1369 
L 1613 1369 
Q 1609 1350 1456 1100 
L 784 0 
L 81 0 
L 1256 1697 
L 134 3456 
L 847 3456 
L 1494 2300 
Q 1553 2194 1638 2025 
L 1650 2025 
L 2491 3456 
L 3163 3456 
z
" transform="scale(0.015625)"/>
     <path id="MicrosoftYaHei-47" d="M 628 3216 
Q 1144 3538 1819 3538 
Q 3069 3538 3069 2225 
L 3069 0 
L 2463 0 
L 2463 534 
L 2447 534 
Q 2088 -81 1388 -81 
Q 884 -81 587 191 
Q 291 463 291 925 
Q 291 1894 1438 2053 
L 2463 2197 
Q 2463 3044 1763 3044 
Q 1141 3044 628 2625 
L 628 3216 
z
M 1653 1625 
Q 1228 1569 1067 1412 
Q 906 1256 906 975 
Q 906 728 1081 572 
Q 1256 416 1544 416 
Q 1944 416 2203 697 
Q 2463 978 2463 1403 
L 2463 1734 
L 1653 1625 
z
" transform="scale(0.015625)"/>
     <path id="MicrosoftYaHei-53" d="M 5522 0 
L 4909 0 
L 4909 1984 
Q 4909 2547 4734 2789 
Q 4559 3031 4159 3031 
Q 3822 3031 3581 2715 
Q 3341 2400 3341 1969 
L 3341 0 
L 2728 0 
L 2728 2047 
Q 2728 3031 1969 3031 
Q 1619 3031 1389 2731 
Q 1159 2431 1159 1966 
L 1159 0 
L 547 0 
L 547 3456 
L 1159 3456 
L 1159 2909 
L 1172 2909 
Q 1541 3538 2250 3538 
Q 2597 3538 2862 3347 
Q 3128 3156 3231 2831 
Q 3616 3538 4381 3538 
Q 5522 3538 5522 2131 
L 5522 0 
z
" transform="scale(0.015625)"/>
     <path id="MicrosoftYaHei-56" d="M 1159 488 
L 1159 -1591 
L 547 -1591 
L 547 3456 
L 1159 3456 
L 1159 2859 
L 1172 2859 
Q 1578 3538 2359 3538 
Q 3022 3538 3398 3073 
Q 3775 2609 3775 1828 
Q 3775 966 3348 442 
Q 2922 -81 2200 -81 
Q 1534 -81 1172 488 
L 1159 488 
z
M 1156 1425 
Q 1156 1003 1428 714 
Q 1700 425 2109 425 
Q 2597 425 2872 800 
Q 3147 1175 3147 1838 
Q 3147 2397 2890 2714 
Q 2634 3031 2191 3031 
Q 1738 3031 1447 2709 
Q 1156 2388 1156 1884 
L 1156 1425 
z
" transform="scale(0.015625)"/>
     <path id="MicrosoftYaHei-52" d="M 544 0 
L 544 5116 
L 1156 5116 
L 1156 0 
L 544 0 
z
" transform="scale(0.015625)"/>
     <path id="MicrosoftYaHei-4b" d="M 3363 1572 
L 944 1572 
Q 959 1019 1246 717 
Q 1534 416 2050 416 
Q 2631 416 3116 788 
L 3116 241 
Q 2659 -81 1906 -81 
Q 1156 -81 736 394 
Q 316 869 316 1713 
Q 316 2506 777 3022 
Q 1238 3538 1922 3538 
Q 2600 3538 2981 3102 
Q 3363 2666 3363 1881 
L 3363 1572 
z
M 2750 2063 
Q 2747 2531 2528 2787 
Q 2309 3044 1913 3044 
Q 1547 3044 1280 2772 
Q 1013 2500 944 2063 
L 2750 2063 
z
" transform="scale(0.015625)"/>
     <path id="MicrosoftYaHei-3" transform="scale(0.015625)"/>
     <path id="MicrosoftYaHei-1a" d="M 2906 4841 
L 2906 1644 
L 3631 1644 
L 3631 1138 
L 2906 1138 
L 2906 0 
L 2313 0 
L 2313 1138 
L 53 1138 
L 53 1616 
Q 656 2294 1265 3178 
Q 1875 4063 2272 4841 
L 2906 4841 
z
M 741 1644 
L 2313 1644 
L 2313 3950 
Q 1988 3366 1616 2817 
Q 1244 2269 741 1644 
z
" transform="scale(0.015625)"/>
     <path id="MicrosoftYaHei-78" d="M 372 2113 
Q 372 2278 490 2395 
Q 609 2513 775 2513 
Q 941 2513 1061 2397 
Q 1181 2281 1181 2113 
Q 1181 1950 1064 1831 
Q 947 1713 772 1713 
Q 600 1713 486 1831 
Q 372 1950 372 2113 
z
" transform="scale(0.015625)"/>
     <path id="MicrosoftYaHei-32" d="M 3178 0 
L 625 0 
L 625 4841 
L 1250 4841 
L 1250 553 
L 3178 553 
L 3178 0 
z
" transform="scale(0.015625)"/>
     <path id="MicrosoftYaHei-4f" d="M 472 4675 
Q 472 4838 583 4948 
Q 694 5059 856 5059 
Q 1022 5059 1136 4950 
Q 1250 4841 1250 4675 
Q 1250 4513 1136 4405 
Q 1022 4297 856 4297 
Q 691 4297 581 4405 
Q 472 4513 472 4675 
z
M 544 0 
L 544 3456 
L 1156 3456 
L 1156 0 
L 544 0 
z
" transform="scale(0.015625)"/>
     <path id="MicrosoftYaHei-54" d="M 3469 0 
L 2859 0 
L 2859 1966 
Q 2859 3031 2081 3031 
Q 1678 3031 1418 2731 
Q 1159 2431 1159 1972 
L 1159 0 
L 547 0 
L 547 3456 
L 1159 3456 
L 1159 2884 
L 1172 2884 
Q 1563 3538 2306 3538 
Q 2875 3538 3172 3173 
Q 3469 2809 3469 2113 
L 3469 0 
z
" transform="scale(0.015625)"/>
     <path id="MicrosoftYaHei-58" d="M 2400 2850 
Q 2247 2959 1978 2959 
Q 1622 2959 1390 2626 
Q 1159 2294 1159 1750 
L 1159 0 
L 547 0 
L 547 3456 
L 1159 3456 
L 1159 2753 
L 1172 2753 
Q 1434 3516 2078 3516 
Q 2288 3516 2400 3469 
L 2400 2850 
z
" transform="scale(0.015625)"/>
     <path id="MicrosoftYaHei-3c" d="M 4272 4841 
L 2494 0 
L 1800 0 
L 56 4841 
L 750 4841 
L 2053 1056 
Q 2119 869 2150 622 
L 2166 622 
Q 2191 838 2275 1063 
L 3603 4841 
L 4272 4841 
z
" transform="scale(0.015625)"/>
     <path id="MicrosoftYaHei-49" d="M 2934 156 
Q 2538 -81 1978 -81 
Q 1228 -81 772 400 
Q 316 881 316 1647 
Q 316 2497 808 3017 
Q 1300 3538 2125 3538 
Q 2600 3538 2938 3369 
L 2938 2763 
Q 2572 3031 2125 3031 
Q 1600 3031 1270 2667 
Q 941 2303 941 1697 
Q 941 1100 1252 762 
Q 1563 425 2091 425 
Q 2538 425 2934 719 
L 2934 156 
z
" transform="scale(0.015625)"/>
     <path id="MicrosoftYaHei-5a" d="M 2206 34 
Q 2006 -75 1666 -75 
Q 738 -75 738 953 
L 738 2950 
L 144 2950 
L 144 3456 
L 738 3456 
L 738 4288 
L 1347 4481 
L 1347 3456 
L 2206 3456 
L 2206 2950 
L 1347 2950 
L 1347 1063 
Q 1347 722 1462 575 
Q 1578 428 1847 428 
Q 2053 428 2206 544 
L 2206 34 
z
" transform="scale(0.015625)"/>
     <path id="MicrosoftYaHei-55" d="M 316 1691 
Q 316 2547 794 3042 
Q 1272 3538 2091 3538 
Q 2869 3538 3311 3061 
Q 3753 2584 3753 1744 
Q 3753 925 3281 422 
Q 2809 -81 2016 -81 
Q 1241 -81 778 406 
Q 316 894 316 1691 
z
M 941 1709 
Q 941 1113 1242 769 
Q 1544 425 2053 425 
Q 2578 425 2853 761 
Q 3128 1097 3128 1725 
Q 3128 2356 2853 2693 
Q 2578 3031 2053 3031 
Q 1538 3031 1239 2678 
Q 941 2325 941 1709 
z
" transform="scale(0.015625)"/>
     <path id="MicrosoftYaHei-2c" d="M 3119 4284 
L 1250 4284 
L 1250 2666 
L 2981 2666 
L 2981 2116 
L 1250 2116 
L 1250 0 
L 625 0 
L 625 4841 
L 3119 4841 
L 3119 4284 
z
" transform="scale(0.015625)"/>
     <path id="MicrosoftYaHei-4a" d="M 3547 0 
L 2934 0 
L 2934 575 
L 2922 575 
Q 2544 -81 1747 -81 
Q 1091 -81 703 386 
Q 316 853 316 1647 
Q 316 2503 753 3020 
Q 1191 3538 1897 3538 
Q 2603 3538 2922 2988 
L 2934 2988 
L 2934 5116 
L 3547 5116 
L 3547 0 
z
M 2938 2056 
Q 2938 2472 2664 2751 
Q 2391 3031 1991 3031 
Q 1503 3031 1222 2667 
Q 941 2303 941 1675 
Q 941 1097 1211 761 
Q 1481 425 1931 425 
Q 2375 425 2656 754 
Q 2938 1084 2938 1575 
L 2938 2056 
z
" transform="scale(0.015625)"/>
     <path id="MicrosoftYaHei-59" d="M 353 747 
Q 816 413 1350 413 
Q 2066 413 2066 881 
Q 2066 1081 1909 1211 
Q 1753 1341 1275 1519 
Q 700 1750 528 1976 
Q 356 2203 356 2525 
Q 356 2984 745 3261 
Q 1134 3538 1703 3538 
Q 2144 3538 2522 3384 
L 2522 2794 
Q 2134 3044 1644 3044 
Q 1350 3044 1165 2916 
Q 981 2788 981 2578 
Q 981 2372 1114 2256 
Q 1247 2141 1703 1959 
Q 2281 1744 2484 1512 
Q 2688 1281 2688 941 
Q 2688 466 2298 192 
Q 1909 -81 1291 -81 
Q 753 -81 353 122 
L 353 747 
z
" transform="scale(0.015625)"/>
    </defs>
    <use xlink:href="#MicrosoftYaHei-2b"/>
    <use xlink:href="#MicrosoftYaHei-5e" transform="translate(54.984375 0)"/>
    <use xlink:href="#MicrosoftYaHei-47" transform="translate(105.671875 0)"/>
    <use xlink:href="#MicrosoftYaHei-53" transform="translate(160.953125 0)"/>
    <use xlink:href="#MicrosoftYaHei-56" transform="translate(254.65625 0)"/>
    <use xlink:href="#MicrosoftYaHei-52" transform="translate(318.53125 0)"/>
    <use xlink:href="#MicrosoftYaHei-4b" transform="translate(345.140625 0)"/>
    <use xlink:href="#MicrosoftYaHei-3" transform="translate(401.875 0)"/>
    <use xlink:href="#MicrosoftYaHei-1a" transform="translate(431.46875 0)"/>
    <use xlink:href="#MicrosoftYaHei-3" transform="translate(490.109375 0)"/>
    <use xlink:href="#MicrosoftYaHei-78" transform="translate(519.703125 0)"/>
    <use xlink:href="#MicrosoftYaHei-3" transform="translate(543.78125 0)"/>
    <use xlink:href="#MicrosoftYaHei-32" transform="translate(573.375 0)"/>
    <use xlink:href="#MicrosoftYaHei-4f" transform="translate(624.6875 0)"/>
    <use xlink:href="#MicrosoftYaHei-54" transform="translate(651.296875 0)"/>
    <use xlink:href="#MicrosoftYaHei-4b" transform="translate(712.921875 0)"/>
    <use xlink:href="#MicrosoftYaHei-47" transform="translate(769.65625 0)"/>
    <use xlink:href="#MicrosoftYaHei-58" transform="translate(824.9375 0)"/>
    <use xlink:href="#MicrosoftYaHei-3" transform="translate(863.125 0)"/>
    <use xlink:href="#MicrosoftYaHei-3c" transform="translate(892.71875 0)"/>
    <use xlink:href="#MicrosoftYaHei-4b" transform="translate(953.5625 0)"/>
    <use xlink:href="#MicrosoftYaHei-49" transform="translate(1010.296875 0)"/>
    <use xlink:href="#MicrosoftYaHei-5a" transform="translate(1060.4375 0)"/>
    <use xlink:href="#MicrosoftYaHei-55" transform="translate(1096.859375 0)"/>
    <use xlink:href="#MicrosoftYaHei-58" transform="translate(1160.4375 0)"/>
    <use xlink:href="#MicrosoftYaHei-3" transform="translate(1198.625 0)"/>
    <use xlink:href="#MicrosoftYaHei-2c" transform="translate(1228.21875 0)"/>
    <use xlink:href="#MicrosoftYaHei-4f" transform="translate(1281.34375 0)"/>
    <use xlink:href="#MicrosoftYaHei-4b" transform="translate(1307.953125 0)"/>
    <use xlink:href="#MicrosoftYaHei-52" transform="translate(1364.6875 0)"/>
    <use xlink:href="#MicrosoftYaHei-4a" transform="translate(1391.296875 0)"/>
    <use xlink:href="#MicrosoftYaHei-59" transform="translate(1455.265625 0)"/>
   </g>
  </g>
  <g id="text_12">
   <!-- 02  线性速度场的解析解 -->
   <g style="fill: #20252c" transform="translate(50.4 89.466924) scale(0.29 -0.29)">
    <defs>
     <path id="MicrosoftYaHei-Bold-16" d="M 244 2341 
Q 244 3597 706 4259 
Q 1169 4922 2044 4922 
Q 3713 4922 3713 2453 
Q 3713 1238 3259 577 
Q 2806 -84 1950 -84 
Q 244 -84 244 2341 
z
M 1266 2366 
Q 1266 691 1981 691 
Q 2684 691 2684 2416 
Q 2684 4147 2000 4147 
Q 1266 4147 1266 2366 
z
" transform="scale(0.015625)"/>
     <path id="MicrosoftYaHei-Bold-18" d="M 1500 841 
L 3553 841 
L 3553 0 
L 334 0 
L 334 359 
Q 334 738 473 1050 
Q 613 1363 856 1633 
Q 1100 1903 1613 2266 
Q 2081 2616 2268 2886 
Q 2456 3156 2456 3459 
Q 2456 4113 1744 4113 
Q 1119 4113 550 3613 
L 550 4513 
Q 1184 4922 1975 4922 
Q 2700 4922 3122 4551 
Q 3544 4181 3544 3531 
Q 3544 3169 3422 2876 
Q 3300 2584 3069 2328 
Q 2838 2072 2328 1713 
Q 1838 1363 1669 1172 
Q 1500 981 1500 841 
z
" transform="scale(0.015625)"/>
     <path id="MicrosoftYaHei-Bold-3" transform="scale(0.015625)"/>
     <path id="MicrosoftYaHei-Bold-98e" d="M 225 -528 
L 63 347 
Q 1188 491 2369 678 
Q 2353 481 2350 256 
Q 3069 481 3691 806 
Q 3550 1250 3466 1859 
L 2413 1734 
L 2306 2491 
L 3384 2619 
L 3347 3244 
L 2525 3159 
L 2488 3494 
Q 1859 2456 1356 1778 
Q 1919 1859 2294 1928 
Q 2263 1672 2231 1147 
Q 888 972 431 847 
L 200 1547 
Q 597 1922 1075 2641 
Q 738 2613 294 2566 
L 63 3278 
Q 581 3916 1194 5322 
L 1988 5009 
Q 1438 4034 1000 3353 
Q 1234 3356 1531 3372 
Q 1700 3663 1881 3991 
L 2466 3716 
L 2444 3922 
L 3303 4006 
L 3250 5303 
L 4094 5303 
Q 4103 4669 4128 4088 
L 5219 4194 
Q 4844 4469 4350 4778 
L 4756 5316 
Q 5263 5041 5769 4716 
L 5388 4213 
L 5988 4272 
L 6063 3522 
L 4169 3328 
L 4216 2716 
L 6156 2947 
L 6238 2197 
L 5484 2106 
L 6038 1666 
Q 5431 1003 4731 509 
Q 4991 100 5203 100 
Q 5316 100 5387 251 
Q 5459 403 5581 1047 
Q 6013 822 6313 684 
Q 6072 -288 5839 -564 
Q 5606 -841 5300 -841 
Q 4503 -841 4006 56 
Q 3259 -353 2419 -597 
Q 2325 -400 2200 -178 
Q 1084 -353 225 -528 
z
M 5413 2097 
L 4309 1963 
Q 4369 1603 4447 1266 
Q 4972 1638 5413 2097 
z
" transform="scale(0.015625)"/>
     <path id="MicrosoftYaHei-Bold-34ec" d="M 2250 216 
L 3975 216 
L 3975 1378 
L 2563 1378 
L 2563 2191 
L 3975 2191 
L 3975 3303 
L 3213 3303 
Q 3075 2734 2913 2272 
Q 2538 2491 2175 2684 
Q 2563 3684 2738 4947 
L 3506 4891 
Q 3447 4484 3381 4116 
L 3975 4116 
L 3975 5316 
L 4825 5316 
L 4825 4116 
L 6125 4116 
L 6125 3303 
L 4825 3303 
L 4825 2191 
L 6100 2191 
L 6100 1378 
L 4825 1378 
L 4825 216 
L 6313 216 
L 6313 -597 
L 2250 -597 
L 2250 216 
z
M 1788 5316 
L 1788 4456 
Q 2125 4316 2494 4134 
L 2175 3453 
L 1788 3713 
L 1788 -841 
L 950 -841 
L 950 5316 
L 1788 5316 
z
M 269 4103 
L 800 4041 
Q 719 3009 619 2178 
Q 350 2284 106 2316 
Q 225 3284 269 4103 
z
" transform="scale(0.015625)"/>
     <path id="MicrosoftYaHei-Bold-afb" d="M 4650 1772 
Q 5488 1366 6250 941 
L 5850 284 
Q 5063 766 4388 1128 
L 4388 153 
L 3594 153 
L 3594 1191 
Q 3031 603 2319 247 
Q 2119 578 1806 959 
Q 2669 1216 3356 1828 
L 2113 1828 
L 2113 3628 
L 3594 3628 
L 3594 4016 
L 1900 4016 
L 1900 4766 
L 3594 4766 
L 3594 5303 
L 4388 5303 
L 4388 4766 
L 6100 4766 
L 6100 4016 
L 4388 4016 
L 4388 3628 
L 5875 3628 
L 5875 1828 
L 4388 1828 
L 4388 1347 
L 4650 1772 
z
M 2825 22 
Q 4075 -16 6306 34 
Q 6125 -428 6006 -753 
Q 4181 -753 2644 -722 
Q 1694 -722 1138 -116 
Q 888 -403 456 -891 
L 106 41 
Q 356 266 694 553 
L 694 2297 
L 138 2297 
L 138 3122 
L 1475 3122 
L 1475 547 
Q 1844 22 2825 22 
z
M 969 5309 
Q 1406 4647 1725 4084 
Q 1250 3841 956 3678 
Q 650 4316 275 4941 
L 969 5309 
z
M 5175 2978 
L 4388 2978 
L 4388 2478 
L 5175 2478 
L 5175 2978 
z
M 2813 2478 
L 3594 2478 
L 3594 2978 
L 2813 2978 
L 2813 2478 
z
" transform="scale(0.015625)"/>
     <path id="MicrosoftYaHei-Bold-685" d="M 5656 1697 
L 5656 1022 
Q 5156 447 4656 97 
Q 5344 -34 6306 -66 
Q 6119 -428 5938 -822 
Q 4556 -653 3719 -353 
Q 2825 -653 1494 -872 
Q 1338 -522 1088 -178 
Q 2100 -128 2888 78 
Q 2369 453 1938 1022 
L 1538 1022 
L 1538 1697 
L 5656 1697 
z
M 1325 2478 
Q 1338 134 700 -884 
Q 356 -553 19 -297 
Q 550 697 525 2591 
L 525 4772 
L 3013 4772 
Q 2944 4953 2831 5209 
L 3869 5359 
Q 3981 5072 4094 4772 
L 6256 4772 
L 6256 4072 
L 1325 4072 
L 1325 2478 
z
M 1463 3684 
L 2144 3684 
L 2144 3947 
L 2944 3947 
L 2944 3684 
L 4494 3684 
L 4494 3947 
L 5294 3947 
L 5294 3684 
L 6144 3684 
L 6144 3009 
L 5294 3009 
L 5294 1991 
L 2144 1991 
L 2144 3009 
L 1463 3009 
L 1463 3684 
z
M 3756 378 
Q 4325 641 4725 1022 
L 2825 1022 
Q 3225 622 3756 378 
z
M 4494 2628 
L 4494 3009 
L 2944 3009 
L 2944 2628 
L 4494 2628 
z
" transform="scale(0.015625)"/>
     <path id="MicrosoftYaHei-Bold-5aa" d="M 3869 3053 
L 6113 3053 
Q 6113 1753 6038 378 
Q 5994 -659 5094 -722 
Q 4756 -747 4294 -759 
Q 4250 -391 4138 109 
Q 3781 -403 3300 -816 
Q 2944 -541 2544 -278 
Q 3906 759 4225 2303 
L 3719 2303 
Q 3375 1041 2550 284 
Q 2400 416 2256 534 
Q 2250 322 2256 72 
Q 1150 -153 244 -366 
L 81 528 
Q 444 591 813 659 
L 813 2866 
L 144 2866 
L 144 3722 
L 813 3722 
L 813 5303 
L 1644 5303 
L 1644 3722 
L 2238 3722 
L 2238 2866 
L 1644 2866 
L 1644 822 
Q 1794 853 1938 884 
Q 2631 1434 2925 2303 
L 2369 2303 
L 2369 3047 
L 4231 4253 
L 2363 4253 
L 2363 5003 
L 5700 5003 
L 5700 4284 
L 3869 3053 
z
M 4694 116 
Q 5213 116 5244 559 
Q 5300 1203 5325 2303 
L 5000 2303 
Q 4769 1047 4156 134 
Q 4450 116 4694 116 
z
" transform="scale(0.015625)"/>
     <path id="MicrosoftYaHei-Bold-8e9" d="M 1250 5303 
L 2181 5159 
L 1900 4309 
L 2963 4309 
L 2963 3091 
Q 3466 3934 3925 5316 
L 4788 5091 
Q 4650 4675 4494 4278 
L 6106 4278 
L 6034 681 
Q 6019 100 5937 -133 
Q 5856 -366 5684 -512 
Q 5513 -659 5205 -712 
Q 4897 -766 3863 -766 
Q 3769 -216 3625 178 
Q 4088 141 4609 141 
Q 4759 141 4868 175 
Q 4978 209 5048 279 
Q 5119 350 5144 437 
Q 5169 525 5184 1206 
L 5213 2484 
Q 5225 3081 5225 3453 
L 4138 3453 
Q 3931 3016 3700 2603 
Q 3403 2797 2963 2988 
L 2963 -734 
L 2094 -734 
L 2094 -284 
L 1206 -284 
L 1206 -772 
L 338 -772 
L 338 4309 
L 997 4309 
Q 1178 4922 1250 5303 
z
M 2094 3491 
L 1206 3491 
L 1206 2422 
L 2094 2422 
L 2094 3491 
z
M 1206 534 
L 2094 534 
L 2094 1603 
L 1206 1603 
L 1206 534 
z
M 3944 2703 
Q 4394 2166 4913 1397 
L 4125 872 
Q 3650 1653 3219 2203 
L 3944 2703 
z
" transform="scale(0.015625)"/>
     <path id="MicrosoftYaHei-Bold-a55" d="M 3188 953 
L 4475 953 
L 4475 1641 
L 3888 1641 
Q 3769 1331 3619 1078 
Q 3288 1263 3013 1381 
L 3013 47 
Q 3013 -316 2888 -517 
Q 2763 -719 2517 -758 
Q 2272 -797 1963 -797 
L 1884 -403 
L 1406 -403 
L 1406 778 
L 1034 778 
Q 941 -281 656 -897 
Q 350 -516 69 -259 
Q 419 541 419 2078 
L 419 3113 
Q 359 3053 300 2997 
Q 225 3403 81 3866 
Q 725 4522 1075 5359 
L 1838 5259 
Q 1759 5072 1672 4891 
L 2806 4891 
L 2806 4303 
L 2488 3734 
L 3013 3734 
L 3013 1541 
Q 3384 2147 3488 2803 
L 4169 2709 
Q 4134 2513 4091 2328 
L 4475 2328 
L 4475 2853 
L 5263 2853 
L 5263 2328 
L 6131 2328 
L 6131 1641 
L 5263 1641 
L 5263 953 
L 6281 953 
L 6281 266 
L 5263 266 
L 5263 -822 
L 4475 -822 
L 4475 266 
L 3188 266 
L 3188 953 
z
M 963 3734 
L 1697 3734 
L 2000 4278 
L 1338 4278 
Q 1166 3997 963 3734 
z
M 2363 3134 
L 2006 3134 
L 2006 2541 
L 2363 2541 
L 2363 3134 
z
M 1081 2541 
L 1406 2541 
L 1406 3134 
L 1081 3134 
L 1081 2541 
z
M 2006 1366 
L 2363 1366 
L 2363 1953 
L 2006 1953 
L 2006 1366 
z
M 1072 1366 
L 1406 1366 
L 1406 1953 
L 1081 1953 
Q 1081 1909 1072 1366 
z
M 2363 778 
L 2006 778 
L 2006 -81 
Q 2231 -91 2297 -22 
Q 2363 47 2363 247 
L 2363 778 
z
M 4581 2978 
Q 4522 3366 4416 3697 
Q 4206 3203 3581 2816 
Q 3338 3153 3019 3484 
Q 3725 3841 3775 4416 
L 3194 4416 
L 3194 5097 
L 6119 5097 
Q 6103 3772 5973 3492 
Q 5844 3213 5614 3095 
Q 5384 2978 4581 2978 
z
M 4428 3725 
Q 4741 3709 4894 3709 
Q 5122 3709 5198 3821 
Q 5275 3934 5275 4416 
L 4581 4416 
Q 4544 4019 4428 3725 
z
" transform="scale(0.015625)"/>
     <path id="MicrosoftYaHei-Bold-7c5" d="M 94 1559 
Q 653 2478 878 3297 
L 150 3297 
L 150 4116 
L 888 4116 
L 888 5266 
L 1725 5266 
L 1725 4116 
L 2363 4116 
L 2363 3297 
L 1725 3297 
L 1725 2722 
Q 2256 2453 2594 2253 
L 2181 1528 
Q 1978 1678 1725 1841 
L 1725 -822 
L 888 -822 
L 888 1563 
Q 653 1003 319 459 
Q 225 997 94 1559 
z
M 5963 5191 
L 6238 4353 
Q 5244 4178 3506 4041 
L 3506 3091 
L 6306 3091 
L 6306 2266 
L 5275 2266 
L 5275 -791 
L 4425 -791 
L 4425 2266 
L 3506 2266 
Q 3506 281 2656 -859 
Q 2331 -453 1988 -141 
Q 2656 716 2656 2216 
L 2656 4859 
Q 4756 4966 5963 5191 
z
" transform="scale(0.015625)"/>
    </defs>
    <use xlink:href="#MicrosoftYaHei-Bold-16"/>
    <use xlink:href="#MicrosoftYaHei-Bold-18" transform="translate(61.671875 0)"/>
    <use xlink:href="#MicrosoftYaHei-Bold-3" transform="translate(123.34375 0)"/>
    <use xlink:href="#MicrosoftYaHei-Bold-3" transform="translate(153.125 0)"/>
    <use xlink:href="#MicrosoftYaHei-Bold-98e" transform="translate(182.90625 0)"/>
    <use xlink:href="#MicrosoftYaHei-Bold-34ec" transform="translate(282.90625 0)"/>
    <use xlink:href="#MicrosoftYaHei-Bold-afb" transform="translate(382.90625 0)"/>
    <use xlink:href="#MicrosoftYaHei-Bold-685" transform="translate(482.90625 0)"/>
    <use xlink:href="#MicrosoftYaHei-Bold-5aa" transform="translate(582.90625 0)"/>
    <use xlink:href="#MicrosoftYaHei-Bold-8e9" transform="translate(682.90625 0)"/>
    <use xlink:href="#MicrosoftYaHei-Bold-a55" transform="translate(782.90625 0)"/>
    <use xlink:href="#MicrosoftYaHei-Bold-7c5" transform="translate(882.90625 0)"/>
    <use xlink:href="#MicrosoftYaHei-Bold-a55" transform="translate(982.90625 0)"/>
   </g>
  </g>
  <g id="text_13">
   <!-- 2.1 FLOW MODELS  ·  核心定义与推导 -->
   <g style="fill: #697580" transform="translate(50.4 632.075742) scale(0.12 -0.12)">
    <defs>
     <path id="MicrosoftYaHei-35" d="M 313 2363 
Q 313 3534 947 4228 
Q 1581 4922 2666 4922 
Q 3675 4922 4290 4244 
Q 4906 3566 4906 2478 
Q 4906 1300 4275 609 
Q 3644 -81 2588 -81 
Q 1556 -81 934 597 
Q 313 1275 313 2363 
z
M 969 2413 
Q 969 1534 1417 1004 
Q 1866 475 2588 475 
Q 3363 475 3805 983 
Q 4247 1491 4247 2403 
Q 4247 3341 3814 3850 
Q 3381 4359 2628 4359 
Q 1888 4359 1428 3821 
Q 969 3284 969 2413 
z
" transform="scale(0.015625)"/>
     <path id="MicrosoftYaHei-3d" d="M 6431 4841 
L 5075 0 
L 4347 0 
L 3372 3488 
Q 3306 3725 3294 3988 
L 3281 3988 
Q 3263 3728 3194 3494 
L 2209 0 
L 1488 0 
L 84 4841 
L 775 4841 
L 1763 1184 
Q 1828 938 1841 688 
L 1859 688 
Q 1875 875 1963 1184 
L 3009 4841 
L 3625 4841 
L 4625 1156 
Q 4675 975 4706 694 
L 4719 694 
Q 4734 897 4809 1169 
L 5759 4841 
L 6431 4841 
z
" transform="scale(0.015625)"/>
     <path id="MicrosoftYaHei-33" d="M 5003 0 
L 5003 3206 
Q 5003 3603 5050 4159 
L 5034 4159 
Q 4953 3809 4891 3672 
L 3294 0 
L 2947 0 
L 1353 3644 
Q 1297 3769 1209 4159 
L 1191 4159 
Q 1222 3822 1222 3178 
L 1222 0 
L 625 0 
L 625 4841 
L 1472 4841 
L 2900 1522 
Q 3063 1141 3116 928 
L 3138 928 
Q 3300 1375 3366 1534 
L 4819 4841 
L 5625 4841 
L 5625 0 
L 5003 0 
z
" transform="scale(0.015625)"/>
     <path id="MicrosoftYaHei-2a" d="M 625 0 
L 625 4841 
L 2006 4841 
Q 3106 4841 3836 4200 
Q 4566 3559 4566 2481 
Q 4566 1356 3836 678 
Q 3106 0 1956 0 
L 625 0 
z
M 1250 4284 
L 1250 553 
L 1953 553 
Q 2875 553 3392 1056 
Q 3909 1559 3909 2466 
Q 3909 3372 3378 3828 
Q 2847 4284 1981 4284 
L 1250 4284 
z
" transform="scale(0.015625)"/>
     <path id="MicrosoftYaHei-39" d="M 400 909 
Q 622 716 994 591 
Q 1366 466 1700 466 
Q 2719 466 2719 1191 
Q 2719 1394 2609 1556 
Q 2500 1719 2309 1844 
Q 2119 1969 1594 2228 
Q 866 2591 634 2902 
Q 403 3213 403 3613 
Q 403 4216 887 4569 
Q 1372 4922 2109 4922 
Q 2831 4922 3169 4747 
L 3169 4066 
Q 2731 4369 2063 4369 
Q 1619 4369 1339 4183 
Q 1059 3997 1059 3666 
Q 1059 3372 1253 3187 
Q 1447 3003 2094 2684 
Q 2806 2344 3090 2003 
Q 3375 1663 3375 1238 
Q 3375 600 2912 259 
Q 2450 -81 1628 -81 
Q 1341 -81 958 -1 
Q 575 78 400 197 
L 400 909 
z
" transform="scale(0.015625)"/>
     <path id="MicrosoftYaHei-7fe" d="M 2063 759 
Q 3306 1403 4150 2284 
Q 3538 2222 3013 2166 
Q 2781 2141 2581 2078 
L 2350 2534 
Q 2606 2672 2750 2859 
Q 3144 3341 3519 3959 
L 2331 3959 
L 2331 4409 
L 4250 4409 
Q 3994 4791 3775 5091 
L 4181 5347 
Q 4419 5053 4731 4628 
L 4400 4409 
L 6313 4409 
L 6313 3959 
L 4100 3959 
Q 3644 3266 3156 2653 
Q 3844 2691 4550 2734 
Q 4906 3178 5175 3678 
L 5631 3434 
Q 4563 1559 2419 378 
Q 2244 572 2063 759 
z
M 88 1353 
Q 756 2416 1025 3616 
L 131 3616 
L 131 4053 
L 1031 4053 
L 1031 5297 
L 1500 5297 
L 1500 4053 
L 2213 4053 
L 2213 3616 
L 1500 3616 
L 1500 2516 
L 1694 2722 
Q 2094 2384 2438 2047 
L 2119 1728 
Q 1813 2059 1500 2347 
L 1500 -866 
L 1031 -866 
L 1031 2447 
Q 713 1422 288 803 
Q 206 1072 88 1353 
z
M 2250 -472 
Q 4388 428 5769 2466 
L 6194 2178 
Q 5656 1403 5019 784 
Q 5738 197 6369 -366 
L 5988 -772 
Q 5400 -191 4675 466 
Q 3731 -366 2581 -884 
Q 2463 -716 2250 -472 
z
" transform="scale(0.015625)"/>
     <path id="MicrosoftYaHei-6b6" d="M 1706 4116 
L 2225 4116 
L 2225 453 
Q 2225 -116 2731 -116 
L 4075 -116 
Q 4613 -116 4681 334 
Q 4750 728 4800 1278 
Q 5063 1172 5338 1078 
Q 5244 422 5163 97 
Q 4994 -603 4175 -603 
L 2606 -603 
Q 1706 -603 1706 334 
L 1706 4116 
z
M 5231 3641 
Q 5763 2634 6338 1353 
L 5819 1097 
Q 5338 2309 4763 3422 
L 5231 3641 
z
M 788 3447 
L 1288 3309 
Q 1000 1978 600 722 
L 100 916 
Q 513 2091 788 3447 
z
M 3081 5372 
Q 3675 4384 4088 3591 
Q 3794 3441 3588 3322 
Q 3150 4291 2644 5147 
L 3081 5372 
z
" transform="scale(0.015625)"/>
     <path id="MicrosoftYaHei-614" d="M 81 -384 
Q 1119 509 1281 2241 
L 1806 2159 
Q 1731 1581 1578 1081 
Q 2063 50 3081 -103 
L 3081 2647 
L 225 2647 
L 225 3116 
L 6163 3116 
L 6163 2647 
L 3600 2647 
L 3600 1634 
L 5775 1634 
L 5775 1172 
L 3600 1172 
L 3600 -138 
Q 4844 -169 6306 -116 
Q 6200 -359 6125 -634 
Q 4594 -653 3450 -616 
Q 2041 -616 1378 528 
Q 1022 -300 413 -872 
Q 269 -628 81 -384 
z
M 450 4566 
L 3116 4566 
Q 2931 4834 2725 5091 
L 3200 5347 
Q 3444 5066 3731 4716 
L 3450 4566 
L 5981 4566 
L 5981 3378 
L 5488 3378 
L 5488 4097 
L 944 4097 
L 944 3384 
L 450 3384 
L 450 4566 
z
" transform="scale(0.015625)"/>
     <path id="MicrosoftYaHei-423" d="M 4869 4891 
L 5406 4791 
Q 4991 2394 3603 966 
Q 4563 209 6325 -197 
Q 6056 -516 5888 -741 
Q 4113 -163 3203 594 
Q 2275 -166 444 -816 
Q 306 -584 100 -328 
Q 1938 216 2825 950 
Q 1553 2241 956 4703 
L 1444 4891 
Q 1981 2575 3213 1316 
Q 4588 2750 4869 4891 
z
M 2500 5128 
L 2956 5347 
Q 3431 4547 3750 3859 
L 3263 3597 
Q 2881 4441 2500 5128 
z
" transform="scale(0.015625)"/>
     <path id="MicrosoftYaHei-40a" d="M 1163 2384 
L 1163 2859 
L 1413 5328 
L 1931 5328 
L 1834 4334 
L 6269 4334 
L 6269 3859 
L 1791 3859 
L 1694 2859 
L 5813 2859 
Q 5738 1547 5644 416 
Q 5556 -247 5263 -478 
Q 4981 -703 4322 -703 
Q 3706 -697 2900 -678 
Q 2863 -466 2794 -134 
Q 3744 -203 4213 -209 
Q 5050 -266 5125 447 
Q 5206 1278 5263 2384 
L 1163 2384 
z
M 106 1409 
L 4738 1409 
L 4738 934 
L 106 934 
L 106 1409 
z
" transform="scale(0.015625)"/>
     <path id="MicrosoftYaHei-750" d="M 1694 3016 
Q 2488 3978 3106 5334 
L 3575 5178 
Q 3338 4681 3075 4222 
L 6200 4222 
L 6200 3797 
L 4650 3797 
L 4650 2828 
L 6113 2828 
L 6113 2403 
L 4650 2403 
L 4650 1434 
L 6113 1434 
L 6113 1009 
L 4650 1009 
L 4650 22 
L 6300 22 
L 6300 -391 
L 2875 -391 
L 2875 -859 
L 2400 -859 
L 2400 3150 
Q 2225 2903 2044 2666 
Q 1931 2803 1694 3016 
z
M 88 1978 
Q 506 2075 894 2175 
L 894 3691 
L 131 3691 
L 131 4128 
L 894 4128 
L 894 5316 
L 1363 5316 
L 1363 4128 
L 2088 4128 
L 2088 3691 
L 1363 3691 
L 1363 2297 
Q 1744 2400 2088 2503 
Q 2100 2216 2131 2016 
Q 1728 1903 1363 1797 
L 1363 -97 
Q 1363 -734 869 -766 
Q 556 -784 231 -778 
Q 206 -528 156 -259 
Q 469 -284 656 -284 
Q 894 -284 894 -41 
L 894 1663 
Q 500 1547 150 1441 
L 88 1978 
z
M 2875 22 
L 4175 22 
L 4175 1009 
L 2875 1009 
L 2875 22 
z
M 2875 1434 
L 4175 1434 
L 4175 2403 
L 2875 2403 
L 2875 1434 
z
M 2875 2828 
L 4175 2828 
L 4175 3797 
L 2875 3797 
L 2875 2828 
z
M 4019 5072 
L 4413 5316 
Q 4719 4922 4975 4541 
L 4544 4272 
Q 4313 4659 4019 5072 
z
" transform="scale(0.015625)"/>
     <path id="MicrosoftYaHei-62d" d="M 1750 2547 
L 5025 2547 
Q 5531 2547 5606 2866 
Q 5681 3128 5744 3559 
Q 5950 3466 6238 3366 
Q 6144 2941 6063 2672 
Q 5900 2109 5144 2109 
L 1650 2109 
Q 819 2109 819 2916 
L 819 5016 
L 5306 5016 
L 5306 3116 
L 4825 3116 
L 4825 3328 
L 1300 3328 
L 1300 2966 
Q 1300 2547 1750 2547 
z
M 94 1472 
L 4456 1472 
L 4456 1928 
L 4963 1928 
L 4963 1472 
L 6313 1472 
L 6313 1028 
L 4963 1028 
L 4963 9 
Q 4963 -734 4150 -734 
Q 3844 -734 3150 -728 
Q 3119 -497 3056 -191 
Q 3631 -234 4006 -234 
Q 4456 -234 4456 153 
L 4456 1028 
L 94 1028 
L 94 1472 
z
M 1300 4584 
L 1300 3759 
L 4825 3759 
L 4825 4584 
L 1300 4584 
z
M 1269 684 
L 1575 1009 
Q 2269 466 2613 153 
L 2250 -216 
Q 1675 334 1269 684 
z
" transform="scale(0.015625)"/>
    </defs>
    <use xlink:href="#MicrosoftYaHei-18"/>
    <use xlink:href="#MicrosoftYaHei-14" transform="translate(58.640625 0)"/>
    <use xlink:href="#MicrosoftYaHei-17" transform="translate(82.71875 0)"/>
    <use xlink:href="#MicrosoftYaHei-3" transform="translate(141.359375 0)"/>
    <use xlink:href="#MicrosoftYaHei-2c" transform="translate(170.953125 0)"/>
    <use xlink:href="#MicrosoftYaHei-32" transform="translate(224.078125 0)"/>
    <use xlink:href="#MicrosoftYaHei-35" transform="translate(271.6875 0)"/>
    <use xlink:href="#MicrosoftYaHei-3d" transform="translate(353.1875 0)"/>
    <use xlink:href="#MicrosoftYaHei-3" transform="translate(454.953125 0)"/>
    <use xlink:href="#MicrosoftYaHei-33" transform="translate(484.546875 0)"/>
    <use xlink:href="#MicrosoftYaHei-35" transform="translate(582.25 0)"/>
    <use xlink:href="#MicrosoftYaHei-2a" transform="translate(663.75 0)"/>
    <use xlink:href="#MicrosoftYaHei-2b" transform="translate(739.921875 0)"/>
    <use xlink:href="#MicrosoftYaHei-32" transform="translate(794.90625 0)"/>
    <use xlink:href="#MicrosoftYaHei-39" transform="translate(846.21875 0)"/>
    <use xlink:href="#MicrosoftYaHei-3" transform="translate(903.9375 0)"/>
    <use xlink:href="#MicrosoftYaHei-3" transform="translate(933.53125 0)"/>
    <use xlink:href="#MicrosoftYaHei-78" transform="translate(963.125 0)"/>
    <use xlink:href="#MicrosoftYaHei-3" transform="translate(987.203125 0)"/>
    <use xlink:href="#MicrosoftYaHei-3" transform="translate(1016.796875 0)"/>
    <use xlink:href="#MicrosoftYaHei-7fe" transform="translate(1046.390625 0)"/>
    <use xlink:href="#MicrosoftYaHei-6b6" transform="translate(1146.390625 0)"/>
    <use xlink:href="#MicrosoftYaHei-614" transform="translate(1246.390625 0)"/>
    <use xlink:href="#MicrosoftYaHei-423" transform="translate(1346.390625 0)"/>
    <use xlink:href="#MicrosoftYaHei-40a" transform="translate(1446.390625 0)"/>
    <use xlink:href="#MicrosoftYaHei-750" transform="translate(1546.390625 0)"/>
    <use xlink:href="#MicrosoftYaHei-62d" transform="translate(1646.390625 0)"/>
   </g>
  </g>
  <g id="text_14">
   <!-- 2 / 4 -->
   <g style="fill: #697580" transform="translate(931.2975 631.911562) scale(0.12 -0.12)">
    <defs>
     <path id="MicrosoftYaHei-15" d="M 2791 4841 
L 469 -803 
L -103 -803 
L 2219 4841 
L 2791 4841 
z
" transform="scale(0.015625)"/>
    </defs>
    <use xlink:href="#MicrosoftYaHei-18"/>
    <use xlink:href="#MicrosoftYaHei-3" transform="translate(58.640625 0)"/>
    <use xlink:href="#MicrosoftYaHei-15" transform="translate(88.234375 0)"/>
    <use xlink:href="#MicrosoftYaHei-3" transform="translate(130.953125 0)"/>
    <use xlink:href="#MicrosoftYaHei-1a" transform="translate(160.546875 0)"/>
   </g>
  </g>
  <g id="text_15">
   <!-- $u_t(x)=-\theta x,\quad\theta&gt;0,\qquad\dot X_t=-\theta X_t$ -->
   <g style="fill: #20252c" transform="translate(75.6 176.269439) scale(0.29 -0.29)">
    <defs>
     <path id="STIXGeneral-Italic-58" d="M 2950 762 
L 3040 704 
Q 2733 237 2560 89 
Q 2387 -58 2157 -58 
Q 1850 -58 1850 250 
Q 1850 538 2138 1510 
Q 1568 576 1257 253 
Q 947 -70 608 -70 
Q 269 -70 269 269 
Q 269 384 442 1088 
L 666 1978 
Q 755 2349 755 2406 
Q 755 2483 684 2521 
Q 614 2560 365 2560 
L 365 2650 
Q 806 2701 1325 2822 
L 1350 2803 
L 781 531 
Q 762 474 762 429 
Q 762 269 890 269 
Q 1178 269 1798 1210 
Q 2010 1530 2128 1795 
Q 2246 2061 2502 2765 
L 2976 2765 
L 2470 851 
Q 2349 390 2349 352 
Q 2349 243 2419 243 
Q 2496 243 2605 345 
Q 2714 448 2950 762 
z
" transform="scale(0.015625)"/>
     <path id="STIXGeneral-Regular-b" d="M 1946 -1030 
L 1869 -1133 
Q 1126 -710 716 32 
Q 307 774 307 1613 
Q 307 3386 1888 4326 
L 1946 4224 
Q 1293 3667 1075 3126 
Q 858 2586 858 1632 
Q 858 685 1082 96 
Q 1306 -493 1946 -1030 
z
" transform="scale(0.015625)"/>
     <path id="STIXGeneral-Regular-c" d="M 186 4224 
L 262 4326 
Q 992 3891 1408 3148 
Q 1824 2406 1824 1581 
Q 1824 -166 243 -1133 
L 186 -1030 
Q 845 -486 1059 54 
Q 1274 595 1274 1562 
Q 1274 2534 1059 3120 
Q 845 3706 186 4224 
z
" transform="scale(0.015625)"/>
     <path id="STIXGeneral-Regular-21" d="M 3974 1594 
L 358 -154 
L 358 250 
L 3123 1626 
L 358 3002 
L 358 3418 
L 3974 1658 
L 3974 1594 
z
" transform="scale(0.015625)"/>
     <path id="STIXGeneral-Regular-205" d="M -1158 3661 
Q -1158 3526 -1251 3436 
Q -1344 3347 -1478 3347 
Q -1606 3347 -1699 3440 
Q -1792 3533 -1792 3661 
Q -1792 3795 -1705 3888 
Q -1619 3981 -1478 3981 
Q -1331 3981 -1244 3891 
Q -1158 3802 -1158 3661 
z
" transform="scale(0.015625)"/>
    </defs>
    <use xlink:href="#STIXGeneral-Italic-58" transform="translate(0 0.296875)"/>
    <use xlink:href="#STIXGeneral-Italic-57" transform="translate(49.999954 -14.703125) scale(0.7)"/>
    <use xlink:href="#STIXGeneral-Regular-b" transform="translate(73.959935 0.296875)"/>
    <use xlink:href="#STIXGeneral-Italic-5b" transform="translate(107.259908 0.296875)"/>
    <use xlink:href="#STIXGeneral-Regular-c" transform="translate(151.659871 0.296875)"/>
    <use xlink:href="#STIXGeneral-Regular-20" transform="translate(204.959843 0.296875)"/>
    <use xlink:href="#STIXGeneral-Regular-425" transform="translate(293.459782 0.296875)"/>
    <use xlink:href="#STIXGeneral-Italic-207" transform="translate(361.959721 0.296875)"/>
    <use xlink:href="#STIXGeneral-Italic-5b" transform="translate(409.959676 0.296875)"/>
    <use xlink:href="#STIXGeneral-Regular-f" transform="translate(454.359639 0.296875)"/>
    <use xlink:href="#STIXGeneral-Italic-207" transform="translate(599.359608 0.296875)"/>
    <use xlink:href="#STIXGeneral-Regular-21" transform="translate(667.359563 0.296875)"/>
    <use xlink:href="#STIXGeneral-Regular-13" transform="translate(755.859502 0.296875)"/>
    <use xlink:href="#STIXGeneral-Regular-f" transform="translate(805.859456 0.296875)"/>
    <use xlink:href="#STIXGeneral-Regular-205" transform="translate(1116.960988 25.796875)"/>
    <use xlink:href="#STIXGeneral-Italic-3b" transform="translate(1050.859425 0.296875)"/>
    <use xlink:href="#STIXGeneral-Italic-57" transform="translate(1120.840675 -14.703125) scale(0.7)"/>
    <use xlink:href="#STIXGeneral-Regular-20" transform="translate(1164.800656 0.296875)"/>
    <use xlink:href="#STIXGeneral-Regular-425" transform="translate(1253.300595 0.296875)"/>
    <use xlink:href="#STIXGeneral-Italic-207" transform="translate(1321.800534 0.296875)"/>
    <use xlink:href="#STIXGeneral-Italic-3b" transform="translate(1369.800488 0.296875)"/>
    <use xlink:href="#STIXGeneral-Italic-57" transform="translate(1430.900433 -14.703125) scale(0.7)"/>
   </g>
  </g>
  <g id="text_16">
   <!-- $\frac{\mathrm{d}}{\mathrm{d}t}(e^{\theta t}X_t)=e^{\theta t}(\theta X_t+\dot X_t)=0$ -->
   <g style="fill: #20252c" transform="translate(75.6 247.232) scale(0.29 -0.29)">
    <defs>
     <path id="STIXGeneral-Regular-47" d="M 3142 269 
L 2202 -64 
L 2176 -45 
L 2176 365 
Q 1869 -64 1357 -64 
Q 826 -64 499 317 
Q 173 698 173 1312 
Q 173 1990 563 2467 
Q 954 2944 1504 2944 
Q 1850 2944 2176 2669 
L 2176 3667 
Q 2176 3866 2118 3930 
Q 2061 3994 1882 3994 
Q 1792 3994 1741 3987 
L 1741 4090 
Q 2323 4243 2682 4371 
L 2714 4358 
L 2714 730 
Q 2714 506 2768 435 
Q 2822 365 2995 365 
Q 3034 365 3142 371 
L 3142 269 
z
M 2176 653 
L 2176 2125 
Q 2176 2381 1981 2573 
Q 1786 2765 1523 2765 
Q 1158 2765 940 2438 
Q 723 2112 723 1568 
Q 723 979 963 624 
Q 1203 269 1606 269 
Q 1907 269 2080 474 
Q 2176 582 2176 653 
z
" transform="scale(0.015625)"/>
     <path id="STIXGeneral-Regular-e" d="M 4070 1408 
L 2400 1408 
L 2400 -262 
L 1978 -262 
L 1978 1408 
L 307 1408 
L 307 1830 
L 1978 1830 
L 1978 3501 
L 2400 3501 
L 2400 1830 
L 4070 1830 
L 4070 1408 
z
" transform="scale(0.015625)"/>
    </defs>
    <use xlink:href="#STIXGeneral-Regular-47" transform="translate(16.25 35.317188) scale(0.7)"/>
    <use xlink:href="#STIXGeneral-Regular-47" transform="translate(6.25 -31.940625) scale(0.7)"/>
    <use xlink:href="#STIXGeneral-Italic-57" transform="translate(41.249968 -31.940625) scale(0.7)"/>
    <use xlink:href="#STIXGeneral-Regular-b" transform="translate(66.959949 0.242188)"/>
    <use xlink:href="#STIXGeneral-Italic-48" transform="translate(100.259921 0.242188)"/>
    <use xlink:href="#STIXGeneral-Italic-207" transform="translate(150.769572 41.542188) scale(0.7)"/>
    <use xlink:href="#STIXGeneral-Italic-57" transform="translate(184.36954 41.542188) scale(0.7)"/>
    <use xlink:href="#STIXGeneral-Italic-3b" transform="translate(208.329521 0.242188)"/>
    <use xlink:href="#STIXGeneral-Italic-57" transform="translate(269.429466 -14.757812) scale(0.7)"/>
    <use xlink:href="#STIXGeneral-Regular-c" transform="translate(293.389447 0.242188)"/>
    <use xlink:href="#STIXGeneral-Regular-20" transform="translate(346.689419 0.242188)"/>
    <use xlink:href="#STIXGeneral-Italic-48" transform="translate(435.189358 0.242188)"/>
    <use xlink:href="#STIXGeneral-Italic-207" transform="translate(485.699009 41.542188) scale(0.7)"/>
    <use xlink:href="#STIXGeneral-Italic-57" transform="translate(519.298977 41.542188) scale(0.7)"/>
    <use xlink:href="#STIXGeneral-Regular-b" transform="translate(543.258958 0.242188)"/>
    <use xlink:href="#STIXGeneral-Italic-207" transform="translate(576.55893 0.242188)"/>
    <use xlink:href="#STIXGeneral-Italic-3b" transform="translate(624.558885 0.242188)"/>
    <use xlink:href="#STIXGeneral-Italic-57" transform="translate(685.65883 -14.757812) scale(0.7)"/>
    <use xlink:href="#STIXGeneral-Regular-e" transform="translate(729.61881 0.242188)"/>
    <use xlink:href="#STIXGeneral-Regular-205" transform="translate(884.220312 25.742188)"/>
    <use xlink:href="#STIXGeneral-Italic-3b" transform="translate(818.118749 0.242188)"/>
    <use xlink:href="#STIXGeneral-Italic-57" transform="translate(888.099999 -14.757812) scale(0.7)"/>
    <use xlink:href="#STIXGeneral-Regular-c" transform="translate(912.05998 0.242188)"/>
    <use xlink:href="#STIXGeneral-Regular-20" transform="translate(965.359953 0.242188)"/>
    <use xlink:href="#STIXGeneral-Regular-13" transform="translate(1053.859892 0.242188)"/>
    <path d="M 6.25 22.117188 
L 6.25 28.367188 
L 60.709949 28.367188 
L 60.709949 22.117188 
L 6.25 22.117188 
z
"/>
   </g>
  </g>
  <g id="text_17">
   <!-- $e^{\theta t}X_t=x_0\quad\Longrightarrow\quad\psi_t(x_0)=e^{-\theta t}x_0$ -->
   <g style="fill: #285f9b" transform="translate(75.6 324.147021) scale(0.31 -0.31)">
    <defs>
     <path id="STIXGeneral-Regular-6ac" d="M 9722 1651 
L 9722 1587 
Q 9536 1446 9149 1158 
Q 8762 870 8528 694 
Q 8294 518 7968 246 
Q 7642 -26 7379 -288 
L 7245 -160 
Q 7450 77 7725 365 
Q 7731 378 7753 400 
Q 7776 422 7785 428 
Q 7795 435 7811 454 
Q 7827 474 7830 483 
Q 7834 493 7843 512 
Q 7853 531 7856 547 
Q 7859 563 7862 582 
Q 7866 602 7866 627 
Q 7866 672 7821 720 
Q 7776 768 7699 768 
L 352 768 
L 352 1190 
L 8621 1190 
Q 8998 1408 8998 1619 
Q 8998 1792 8627 2048 
L 352 2048 
L 352 2470 
L 7699 2470 
Q 7776 2470 7821 2518 
Q 7866 2566 7866 2611 
Q 7866 2733 7718 2880 
Q 7514 3085 7245 3398 
L 7379 3526 
Q 7642 3264 7974 2982 
Q 8307 2701 8508 2547 
Q 8710 2394 9155 2067 
Q 9600 1741 9722 1651 
z
" transform="scale(0.015625)"/>
     <path id="STIXGeneral-Italic-217" d="M 4275 2822 
L 4275 2720 
Q 4096 2688 3955 2579 
Q 3814 2470 3731 2355 
Q 3648 2240 3571 2022 
Q 3494 1805 3465 1689 
Q 3437 1574 3379 1331 
Q 3059 -70 1722 -70 
L 1376 -1312 
L 890 -1312 
L 1235 -70 
L 1178 -70 
Q 736 -70 550 64 
Q 211 307 211 864 
Q 211 1101 332 1517 
Q 454 1933 454 2144 
Q 454 2682 96 2720 
L 102 2822 
L 442 2822 
Q 973 2822 973 2170 
Q 973 1990 861 1472 
Q 749 954 749 768 
Q 749 397 880 230 
Q 1011 64 1274 64 
L 2010 2739 
L 2496 2739 
L 1760 64 
Q 1997 64 2195 198 
Q 2675 538 2867 1395 
Q 2931 1670 2976 1830 
Q 3021 1990 3120 2204 
Q 3219 2419 3340 2534 
Q 3462 2650 3667 2736 
Q 3872 2822 4134 2822 
L 4275 2822 
z
" transform="scale(0.015625)"/>
    </defs>
    <use xlink:href="#STIXGeneral-Italic-48" transform="translate(0 0.242188)"/>
    <use xlink:href="#STIXGeneral-Italic-207" transform="translate(50.509651 41.542188) scale(0.7)"/>
    <use xlink:href="#STIXGeneral-Italic-57" transform="translate(84.109619 41.542188) scale(0.7)"/>
    <use xlink:href="#STIXGeneral-Italic-3b" transform="translate(108.0696 0.242188)"/>
    <use xlink:href="#STIXGeneral-Italic-57" transform="translate(169.169545 -14.757812) scale(0.7)"/>
    <use xlink:href="#STIXGeneral-Regular-20" transform="translate(213.129525 0.242188)"/>
    <use xlink:href="#STIXGeneral-Italic-5b" transform="translate(301.629464 0.242188)"/>
    <use xlink:href="#STIXGeneral-Regular-13" transform="translate(346.029428 -14.757812) scale(0.7)"/>
    <use xlink:href="#STIXGeneral-Regular-6ac" transform="translate(505.529396 0.242188)"/>
    <use xlink:href="#STIXGeneral-Italic-217" transform="translate(782.929252 0.242188)"/>
    <use xlink:href="#STIXGeneral-Italic-57" transform="translate(841.3292 -14.757812) scale(0.7)"/>
    <use xlink:href="#STIXGeneral-Regular-b" transform="translate(865.289181 0.242188)"/>
    <use xlink:href="#STIXGeneral-Italic-5b" transform="translate(898.589154 0.242188)"/>
    <use xlink:href="#STIXGeneral-Regular-13" transform="translate(942.989117 -14.757812) scale(0.7)"/>
    <use xlink:href="#STIXGeneral-Regular-c" transform="translate(982.489085 0.242188)"/>
    <use xlink:href="#STIXGeneral-Regular-20" transform="translate(1035.789058 0.242188)"/>
    <use xlink:href="#STIXGeneral-Italic-48" transform="translate(1124.288997 0.242188)"/>
    <use xlink:href="#STIXGeneral-Regular-425" transform="translate(1174.798647 41.542188) scale(0.7)"/>
    <use xlink:href="#STIXGeneral-Italic-207" transform="translate(1222.748605 41.542188) scale(0.7)"/>
    <use xlink:href="#STIXGeneral-Italic-57" transform="translate(1256.348573 41.542188) scale(0.7)"/>
    <use xlink:href="#STIXGeneral-Italic-5b" transform="translate(1280.308553 0.242188)"/>
    <use xlink:href="#STIXGeneral-Regular-13" transform="translate(1324.708517 -14.757812) scale(0.7)"/>
   </g>
  </g>
  <g id="text_18">
   <!-- 验证初值与 ODE -->
   <g style="fill: #20252c" transform="translate(524.16 391.389883) scale(0.2 -0.2)">
    <defs>
     <path id="MicrosoftYaHei-be0" d="M 963 4116 
L 819 2397 
L 1450 2397 
L 1613 4503 
L 194 4503 
L 194 4928 
L 2088 4928 
L 1894 2397 
L 2288 2397 
Q 2244 1078 2206 228 
Q 2188 -722 1381 -722 
Q 1044 -722 588 -703 
Q 556 -472 506 -209 
Q 956 -266 1306 -266 
Q 1744 -266 1769 266 
Q 1806 953 1831 1972 
L 331 1972 
L 531 4116 
L 963 4116 
z
M 2338 -103 
L 4594 -103 
Q 5044 1009 5394 2222 
L 5869 2072 
Q 5500 953 5088 -103 
L 6188 -103 
L 6188 -534 
L 2338 -534 
L 2338 -103 
z
M 4606 5278 
L 4488 5078 
Q 5244 3734 6363 3122 
Q 6163 2872 6031 2684 
Q 4931 3497 4238 4641 
Q 3600 3509 2456 2609 
Q 2344 2772 2144 3003 
Q 3388 3866 4050 5278 
L 4606 5278 
z
M 2975 2978 
L 5550 2978 
L 5550 2547 
L 2975 2547 
L 2975 2978 
z
M 3731 2178 
L 4175 2297 
Q 4438 1359 4606 659 
L 4150 528 
Q 3969 1391 3731 2178 
z
M 2656 1897 
L 3094 2034 
Q 3400 1147 3606 453 
L 3144 297 
Q 2938 1097 2656 1897 
z
M 38 1034 
Q 763 1178 1631 1384 
Q 1625 1134 1638 941 
Q 925 791 131 572 
L 38 1034 
z
" transform="scale(0.015625)"/>
     <path id="MicrosoftYaHei-a9a" d="M 1681 -34 
L 2550 -34 
L 2550 3422 
L 3031 3422 
L 3031 -34 
L 4025 -34 
L 4025 4534 
L 2025 4534 
L 2025 4997 
L 6200 4997 
L 6200 4534 
L 4525 4534 
L 4525 2653 
L 5975 2653 
L 5975 2191 
L 4525 2191 
L 4525 -34 
L 6300 -34 
L 6300 -497 
L 1681 -497 
L 1681 -34 
z
M 2050 1534 
Q 2075 1316 2169 991 
Q 1413 241 1025 -203 
L 669 203 
Q 856 466 856 828 
L 856 2784 
L 100 2784 
L 100 3234 
L 1338 3234 
L 1338 797 
Q 1625 1072 2050 1534 
z
M 706 5222 
Q 1438 4478 1731 4147 
L 1294 3778 
Q 900 4291 325 4891 
L 706 5222 
z
" transform="scale(0.015625)"/>
     <path id="MicrosoftYaHei-4ec" d="M 2513 4778 
L 5988 4778 
Q 5894 1509 5844 509 
Q 5819 -659 4844 -647 
Q 4525 -647 3925 -628 
Q 3881 -334 3825 -66 
Q 4425 -122 4788 -122 
Q 5300 -141 5325 541 
Q 5388 1522 5456 4297 
L 4038 4297 
Q 4000 3084 3944 2334 
Q 3806 403 2250 -828 
Q 2088 -634 1850 -428 
Q 3300 691 3419 2372 
Q 3491 3200 3509 4297 
L 2513 4297 
L 2513 4778 
z
M 150 3691 
L 150 4141 
L 2219 4141 
L 2219 3678 
Q 1872 3081 1481 2569 
L 1481 2375 
Q 1631 2269 1784 2163 
Q 2094 2575 2363 3022 
L 2775 2759 
Q 2506 2372 2141 1906 
Q 2453 1678 2769 1441 
L 2450 1059 
Q 1972 1453 1481 1838 
L 1481 -797 
L 1006 -797 
L 1006 1997 
Q 638 1591 231 1247 
Q 163 1491 63 1784 
Q 963 2491 1663 3691 
L 150 3691 
z
M 744 5134 
L 1181 5353 
Q 1413 4984 1669 4497 
L 1206 4259 
Q 975 4759 744 5134 
z
" transform="scale(0.015625)"/>
     <path id="MicrosoftYaHei-49b" d="M 1619 -216 
L 2250 -216 
L 2250 3653 
L 3725 3653 
L 3725 4222 
L 1913 4222 
L 1913 4647 
L 3725 4647 
L 3725 5309 
L 4200 5309 
L 4200 4647 
L 6169 4647 
L 6169 4222 
L 4200 4222 
L 4200 3653 
L 5713 3653 
L 5713 -216 
L 6306 -216 
L 6306 -641 
L 1619 -641 
L 1619 -216 
z
M 69 2247 
Q 906 3497 1369 5278 
L 1831 5141 
Q 1581 4334 1288 3628 
L 1288 -816 
L 831 -816 
L 831 2666 
Q 563 2166 263 1734 
Q 175 1997 69 2247 
z
M 2713 -216 
L 5250 -216 
L 5250 353 
L 2713 353 
L 2713 -216 
z
M 5250 3241 
L 2713 3241 
L 2713 2678 
L 5250 2678 
L 5250 3241 
z
M 2713 1716 
L 5250 1716 
L 5250 2278 
L 2713 2278 
L 2713 1716 
z
M 2713 753 
L 5250 753 
L 5250 1316 
L 2713 1316 
L 2713 753 
z
" transform="scale(0.015625)"/>
    </defs>
    <use xlink:href="#MicrosoftYaHei-be0"/>
    <use xlink:href="#MicrosoftYaHei-a9a" transform="translate(100 0)"/>
    <use xlink:href="#MicrosoftYaHei-4ec" transform="translate(200 0)"/>
    <use xlink:href="#MicrosoftYaHei-49b" transform="translate(300 0)"/>
    <use xlink:href="#MicrosoftYaHei-40a" transform="translate(400 0)"/>
    <use xlink:href="#MicrosoftYaHei-3" transform="translate(500 0)"/>
    <use xlink:href="#MicrosoftYaHei-35" transform="translate(529.59375 0)"/>
    <use xlink:href="#MicrosoftYaHei-2a" transform="translate(611.09375 0)"/>
    <use xlink:href="#MicrosoftYaHei-2b" transform="translate(687.265625 0)"/>
   </g>
  </g>
  <g id="text_19">
   <!-- $\psi_0(x_0)=e^0x_0=x_0$ -->
   <g style="fill: #20252c" transform="translate(544.32 443.083566) scale(0.26 -0.26)">
    <use xlink:href="#STIXGeneral-Italic-217" transform="translate(0 0.384375)"/>
    <use xlink:href="#STIXGeneral-Regular-13" transform="translate(58.399948 -14.615625) scale(0.7)"/>
    <use xlink:href="#STIXGeneral-Regular-b" transform="translate(97.899916 0.384375)"/>
    <use xlink:href="#STIXGeneral-Italic-5b" transform="translate(131.199889 0.384375)"/>
    <use xlink:href="#STIXGeneral-Regular-13" transform="translate(175.599852 -14.615625) scale(0.7)"/>
    <use xlink:href="#STIXGeneral-Regular-c" transform="translate(215.09982 0.384375)"/>
    <use xlink:href="#STIXGeneral-Regular-20" transform="translate(268.399792 0.384375)"/>
    <use xlink:href="#STIXGeneral-Italic-48" transform="translate(356.899731 0.384375)"/>
    <use xlink:href="#STIXGeneral-Regular-13" transform="translate(407.409382 41.684375) scale(0.7)"/>
    <use xlink:href="#STIXGeneral-Italic-5b" transform="translate(446.90935 0.384375)"/>
    <use xlink:href="#STIXGeneral-Regular-13" transform="translate(491.309314 -14.615625) scale(0.7)"/>
    <use xlink:href="#STIXGeneral-Regular-20" transform="translate(550.809282 0.384375)"/>
    <use xlink:href="#STIXGeneral-Italic-5b" transform="translate(639.309221 0.384375)"/>
    <use xlink:href="#STIXGeneral-Regular-13" transform="translate(683.709184 -14.615625) scale(0.7)"/>
   </g>
  </g>
  <g id="text_20">
   <!-- $\partial_t\psi_t(x_0)=-\theta e^{-\theta t}x_0$ -->
   <g style="fill: #20252c" transform="translate(544.32 500.437275) scale(0.25 -0.25)">
    <defs>
     <path id="STIXGeneral-Regular-415" d="M 1248 4000 
L 1184 4128 
Q 1427 4275 1811 4275 
Q 3014 4275 3014 2611 
Q 3014 2298 2963 1965 
Q 2912 1632 2777 1261 
Q 2643 890 2438 598 
Q 2234 307 1894 118 
Q 1555 -70 1126 -70 
Q 685 -70 470 224 
Q 256 518 256 966 
Q 256 1664 739 2224 
Q 1222 2784 1901 2784 
Q 2342 2784 2515 2477 
Q 2560 2726 2560 2925 
Q 2560 3418 2365 3750 
Q 2170 4083 1722 4083 
Q 1510 4083 1248 4000 
z
M 2349 2042 
Q 2349 2323 2230 2457 
Q 2112 2592 1958 2592 
Q 1491 2592 1132 2013 
Q 774 1434 774 749 
Q 774 122 1203 122 
Q 1549 122 1827 499 
Q 2106 877 2253 1414 
Q 2349 1766 2349 2042 
z
" transform="scale(0.015625)"/>
    </defs>
    <use xlink:href="#STIXGeneral-Regular-415" transform="translate(0 0.242188)"/>
    <use xlink:href="#STIXGeneral-Italic-57" transform="translate(48.67496 -14.757812) scale(0.7)"/>
    <use xlink:href="#STIXGeneral-Italic-217" transform="translate(72.634941 0.242188)"/>
    <use xlink:href="#STIXGeneral-Italic-57" transform="translate(131.034889 -14.757812) scale(0.7)"/>
    <use xlink:href="#STIXGeneral-Regular-b" transform="translate(154.99487 0.242188)"/>
    <use xlink:href="#STIXGeneral-Italic-5b" transform="translate(188.294843 0.242188)"/>
    <use xlink:href="#STIXGeneral-Regular-13" transform="translate(232.694806 -14.757812) scale(0.7)"/>
    <use xlink:href="#STIXGeneral-Regular-c" transform="translate(272.194774 0.242188)"/>
    <use xlink:href="#STIXGeneral-Regular-20" transform="translate(325.494746 0.242188)"/>
    <use xlink:href="#STIXGeneral-Regular-425" transform="translate(413.994685 0.242188)"/>
    <use xlink:href="#STIXGeneral-Italic-207" transform="translate(482.494624 0.242188)"/>
    <use xlink:href="#STIXGeneral-Italic-48" transform="translate(530.494579 0.242188)"/>
    <use xlink:href="#STIXGeneral-Regular-425" transform="translate(581.004229 41.542188) scale(0.7)"/>
    <use xlink:href="#STIXGeneral-Italic-207" transform="translate(628.954187 41.542188) scale(0.7)"/>
    <use xlink:href="#STIXGeneral-Italic-57" transform="translate(662.554155 41.542188) scale(0.7)"/>
    <use xlink:href="#STIXGeneral-Italic-5b" transform="translate(686.514135 0.242188)"/>
    <use xlink:href="#STIXGeneral-Regular-13" transform="translate(730.914099 -14.757812) scale(0.7)"/>
   </g>
  </g>
  <g id="text_21">
   <!-- $=u_t(\psi_t(x_0))$ -->
   <g style="fill: #285f9b" transform="translate(544.32 545.381016) scale(0.27 -0.27)">
    <use xlink:href="#STIXGeneral-Regular-20" transform="translate(20 0.40625)"/>
    <use xlink:href="#STIXGeneral-Italic-58" transform="translate(108.499939 0.40625)"/>
    <use xlink:href="#STIXGeneral-Italic-57" transform="translate(158.499893 -14.59375) scale(0.7)"/>
    <use xlink:href="#STIXGeneral-Regular-b" transform="translate(182.459874 0.40625)"/>
    <use xlink:href="#STIXGeneral-Italic-217" transform="translate(215.759846 0.40625)"/>
    <use xlink:href="#STIXGeneral-Italic-57" transform="translate(274.159795 -14.59375) scale(0.7)"/>
    <use xlink:href="#STIXGeneral-Regular-b" transform="translate(298.119775 0.40625)"/>
    <use xlink:href="#STIXGeneral-Italic-5b" transform="translate(331.419748 0.40625)"/>
    <use xlink:href="#STIXGeneral-Regular-13" transform="translate(375.819711 -14.59375) scale(0.7)"/>
    <use xlink:href="#STIXGeneral-Regular-c" transform="translate(415.319679 0.40625)"/>
    <use xlink:href="#STIXGeneral-Regular-c" transform="translate(448.619652 0.40625)"/>
   </g>
  </g>
  <g id="text_22">
   <!-- 速度大小随到原点的距离一起减小；有限时间内收缩比例仍大于零。 -->
   <g style="fill: #20252c" transform="translate(75.6 598.868332) scale(0.18 -0.18)">
    <defs>
     <path id="MicrosoftYaHei-b2c" d="M 2231 3572 
L 3800 3572 
L 3800 4178 
L 1938 4178 
L 1938 4609 
L 3800 4609 
L 3800 5291 
L 4263 5291 
L 4263 4609 
L 6225 4609 
L 6225 4178 
L 4263 4178 
L 4263 3572 
L 5831 3572 
L 5831 1778 
L 5381 1778 
L 5381 1972 
L 4263 1972 
L 4263 1522 
L 4425 1772 
Q 5350 1266 6206 766 
L 5919 322 
Q 5044 916 4263 1347 
L 4263 -9 
L 3800 -9 
L 3800 1603 
Q 3044 766 2069 184 
Q 1963 347 1731 591 
Q 2869 1153 3644 1972 
L 2681 1972 
L 2681 1778 
L 2231 1778 
L 2231 3572 
z
M 2663 -222 
Q 4219 -247 6300 -197 
Q 6231 -403 6125 -691 
Q 4056 -703 2569 -666 
Q 1506 -653 1081 66 
Q 825 -172 331 -772 
L 75 -253 
Q 625 278 875 509 
L 875 2616 
L 131 2616 
L 131 3078 
L 1356 3078 
L 1356 403 
Q 1738 -216 2663 -222 
z
M 5381 3166 
L 4263 3166 
L 4263 2378 
L 5381 2378 
L 5381 3166 
z
M 2681 2378 
L 3800 2378 
L 3800 3166 
L 2681 3166 
L 2681 2378 
z
M 800 5178 
Q 1119 4791 1675 3997 
L 1231 3684 
Q 725 4478 400 4909 
L 800 5178 
z
" transform="scale(0.015625)"/>
     <path id="MicrosoftYaHei-686" d="M 1550 1216 
L 1550 1628 
L 5469 1628 
L 5469 1222 
Q 4903 613 4147 163 
Q 5050 -200 6263 -309 
L 6019 -797 
Q 4625 -603 3644 -109 
Q 2600 -619 1250 -866 
Q 1150 -666 994 -416 
Q 2231 -222 3166 166 
Q 2497 600 2066 1216 
L 1550 1216 
z
M 1363 3541 
L 2294 3541 
L 2294 4066 
L 2769 4066 
L 2769 3541 
L 4538 3541 
L 4538 4072 
L 5013 4072 
L 5013 3541 
L 6150 3541 
L 6150 3128 
L 5013 3128 
L 5013 1928 
L 4538 1928 
L 4538 2147 
L 2769 2147 
L 2769 1922 
L 2294 1922 
L 2294 3128 
L 1363 3128 
L 1363 3541 
z
M 3025 5172 
L 3481 5391 
Q 3694 5056 3909 4634 
L 6213 4634 
L 6213 4197 
L 1225 4197 
L 1225 2316 
Q 1225 178 394 -872 
Q 238 -666 38 -447 
Q 725 397 738 2347 
L 738 4634 
L 3331 4634 
Q 3188 4909 3025 5172 
z
M 2769 2547 
L 4538 2547 
L 4538 3128 
L 2769 3128 
L 2769 2547 
z
M 4819 1216 
L 2588 1216 
Q 3031 728 3656 391 
Q 4334 741 4819 1216 
z
" transform="scale(0.015625)"/>
     <path id="MicrosoftYaHei-5dd" d="M 88 -341 
Q 2666 806 2869 3103 
L 200 3103 
L 200 3591 
L 2891 3591 
Q 2906 4431 2906 5284 
L 3450 5284 
Q 3450 4444 3434 3591 
L 6206 3591 
L 6206 3103 
L 3425 3103 
Q 3869 606 6338 -191 
Q 6019 -497 5863 -697 
Q 3828 122 3203 2219 
Q 2716 322 475 -822 
Q 350 -653 88 -341 
z
" transform="scale(0.015625)"/>
     <path id="MicrosoftYaHei-634" d="M 1513 3878 
L 2025 3697 
Q 1425 1984 625 478 
Q 413 609 113 759 
Q 831 1972 1513 3878 
z
M 4300 3641 
L 4769 3866 
Q 5563 2422 6319 828 
L 5750 559 
Q 4988 2328 4300 3641 
z
M 3000 5247 
L 3556 5247 
L 3556 66 
Q 3556 -747 2675 -747 
Q 2325 -747 1744 -728 
Q 1700 -453 1638 -141 
Q 2238 -197 2556 -197 
Q 3000 -197 3000 203 
L 3000 5247 
z
" transform="scale(0.015625)"/>
     <path id="MicrosoftYaHei-b9a" d="M 3256 4641 
L 4128 4641 
Q 4247 4963 4331 5291 
L 4756 5172 
Q 4663 4897 4563 4641 
L 6181 4641 
L 6181 4228 
L 4397 4228 
Q 4266 3916 4122 3628 
L 5794 3628 
L 5794 791 
Q 5794 134 5156 134 
L 4569 134 
Q 4563 178 4481 597 
Q 4838 578 5056 578 
Q 5369 578 5369 891 
L 5369 1328 
L 4113 1328 
L 4113 122 
L 3688 122 
L 3688 2841 
Q 3459 2475 3213 2153 
Q 3119 2397 3019 2597 
Q 3600 3394 3963 4228 
L 3256 4228 
L 3256 4641 
z
M 2081 1809 
Q 2225 666 1531 509 
Q 1325 466 969 503 
Q 925 697 844 991 
Q 1163 916 1375 947 
Q 1756 1009 1625 1809 
Q 1531 2241 1075 2772 
Q 1325 3578 1563 4459 
L 831 4459 
L 831 -809 
L 388 -809 
L 388 4909 
L 2025 4909 
L 2025 4459 
Q 1788 3647 1550 2853 
Q 1975 2359 2081 1809 
z
M 3969 -172 
Q 4688 -203 6244 -153 
Q 6144 -409 6063 -647 
Q 4763 -672 3956 -622 
Q 3069 -584 2600 78 
Q 2275 -366 1988 -834 
L 1681 -447 
Q 1891 -131 2444 572 
L 2444 2709 
L 1938 2709 
L 1938 3134 
L 2881 3134 
L 2881 403 
Q 3263 -156 3969 -172 
z
M 4113 1716 
L 5369 1716 
L 5369 2278 
L 4113 2278 
L 4113 1716 
z
M 5369 3228 
L 4113 3228 
L 4113 2666 
L 5369 2666 
L 5369 3228 
z
M 2575 5253 
Q 2881 4491 3044 3959 
Q 2794 3878 2606 3797 
Q 2450 4378 2181 5116 
L 2575 5253 
z
" transform="scale(0.015625)"/>
     <path id="MicrosoftYaHei-4f1" d="M 2856 4122 
Q 3356 3384 3794 2584 
Q 3556 2472 3313 2334 
Q 3203 2566 3088 2791 
Q 1741 2659 531 2534 
L 306 3053 
Q 669 3247 931 3672 
Q 1172 4034 1403 4484 
L 238 4484 
L 238 4947 
L 3825 4947 
L 3825 4484 
L 1994 4484 
Q 1528 3694 1050 3047 
Q 1941 3113 2863 3209 
Q 2656 3569 2431 3909 
L 2856 4122 
z
M 281 1734 
L 1750 1734 
L 1750 2509 
L 2250 2509 
L 2250 1734 
L 3681 1734 
L 3681 1272 
L 2250 1272 
L 2250 172 
Q 2988 266 3769 372 
Q 3769 153 3794 -116 
Q 2025 -334 238 -597 
L 94 -72 
Q 891 9 1750 113 
L 1750 1272 
L 281 1272 
L 281 1734 
z
M 5519 5322 
L 6038 5322 
L 6038 34 
Q 6038 -747 5281 -747 
Q 5025 -747 4369 -741 
Q 4331 -484 4275 -178 
Q 4825 -228 5125 -228 
Q 5519 -234 5519 178 
L 5519 5322 
z
M 4163 4647 
L 4669 4647 
L 4669 666 
L 4163 666 
L 4163 4647 
z
" transform="scale(0.015625)"/>
     <path id="MicrosoftYaHei-53d" d="M 1950 3853 
L 3081 3853 
Q 3200 4153 3306 4472 
L 1256 4472 
L 1256 2772 
Q 1256 1322 1088 634 
Q 919 -103 394 -866 
Q 238 -653 44 -434 
Q 475 209 613 834 
Q 756 1428 756 2659 
L 756 4928 
L 6219 4928 
L 6219 4472 
L 3856 4472 
Q 3716 4134 3584 3853 
L 5719 3853 
L 5719 1291 
L 5250 1291 
L 5250 1416 
L 4094 1416 
L 4094 16 
Q 4094 -772 3381 -766 
Q 3163 -766 2594 -753 
Q 2569 -516 2513 -209 
Q 3000 -272 3281 -272 
Q 3594 -272 3594 91 
L 3594 1416 
L 2419 1416 
L 2419 1291 
L 1950 1291 
L 1950 3853 
z
M 2419 1834 
L 5250 1834 
L 5250 2434 
L 2419 2434 
L 2419 1834 
z
M 5250 3434 
L 2419 3434 
L 2419 2841 
L 5250 2841 
L 5250 3434 
z
M 2488 1172 
L 2919 891 
Q 2313 -9 1613 -703 
Q 1450 -566 1206 -397 
Q 1838 184 2488 1172 
z
M 4925 1159 
Q 5738 391 6313 -266 
L 5894 -641 
Q 5294 122 4556 859 
L 4925 1159 
z
" transform="scale(0.015625)"/>
     <path id="MicrosoftYaHei-8b5" d="M 900 3378 
L 2863 3378 
L 2863 5341 
L 3388 5341 
L 3388 4591 
L 6181 4591 
L 6181 4141 
L 3388 4141 
L 3388 3378 
L 5600 3378 
L 5600 991 
L 5088 991 
L 5088 1253 
L 1413 1253 
L 1413 991 
L 900 991 
L 900 3378 
z
M 5088 2928 
L 1413 2928 
L 1413 1703 
L 5088 1703 
L 5088 2928 
z
M 5425 847 
Q 5925 91 6225 -516 
L 5750 -772 
Q 5438 -134 4994 622 
L 5425 847 
z
M 1369 553 
Q 894 -303 531 -791 
L 100 -484 
Q 506 53 931 803 
L 1369 553 
z
M 2413 828 
Q 2700 197 2913 -503 
L 2406 -678 
Q 2213 3 1963 666 
L 2413 828 
z
M 3906 872 
Q 4206 253 4450 -422 
L 3956 -616 
Q 3781 -53 3450 697 
L 3906 872 
z
" transform="scale(0.015625)"/>
     <path id="MicrosoftYaHei-919" d="M 356 4284 
L 988 4284 
Q 1219 4853 1369 5322 
L 1894 5172 
Q 1697 4694 1513 4284 
L 2763 4284 
L 2763 -691 
L 2263 -691 
L 2263 -203 
L 856 -203 
L 856 -734 
L 356 -734 
L 356 4284 
z
M 2856 3003 
Q 3444 3934 3850 5322 
L 4375 5191 
Q 4216 4719 4050 4303 
L 6063 4303 
Q 5988 1091 5938 259 
Q 5894 -722 4906 -722 
Q 4338 -722 3750 -684 
Q 3713 -372 3650 -128 
L 3669 -128 
Q 4294 -216 4813 -216 
Q 5381 -216 5425 384 
Q 5494 1316 5525 3834 
L 3850 3834 
Q 3578 3231 3288 2772 
Q 3119 2891 2856 3003 
z
M 856 266 
L 2263 266 
L 2263 1847 
L 856 1847 
L 856 266 
z
M 2263 3816 
L 856 3816 
L 856 2297 
L 2263 2297 
L 2263 3816 
z
M 3406 2578 
L 3788 2859 
Q 4481 2041 4894 1441 
L 4431 1116 
Q 3988 1841 3406 2578 
z
" transform="scale(0.015625)"/>
     <path id="MicrosoftYaHei-ae5" d="M 2988 4953 
L 6225 4953 
L 6225 4503 
L 3463 4503 
L 3463 3328 
L 5913 3328 
L 5913 991 
L 5450 991 
L 5450 1228 
L 3463 1228 
L 3463 -128 
L 6300 -128 
L 6300 -578 
L 2988 -578 
L 2988 4953 
z
M 69 -34 
L 425 22 
L 425 2478 
L 831 2478 
L 831 91 
Q 1134 144 1438 203 
L 1438 3122 
L 938 3122 
L 938 2916 
L 525 2916 
L 525 4984 
L 2444 4984 
L 2444 3122 
L 1856 3122 
L 1856 2022 
L 2588 2022 
L 2588 1628 
L 1856 1628 
L 1856 284 
Q 2241 363 2631 447 
Q 2638 178 2656 -9 
Q 1219 -272 219 -516 
L 69 -34 
z
M 5450 2891 
L 3463 2891 
L 3463 1666 
L 5450 1666 
L 5450 2891 
z
M 2025 3484 
L 2025 4622 
L 938 4622 
L 938 3484 
L 2025 3484 
z
" transform="scale(0.015625)"/>
     <path id="MicrosoftYaHei-959" d="M 2381 459 
Q 3106 484 3878 519 
Q 3716 700 3550 878 
L 3863 1122 
Q 4350 634 4781 147 
L 4450 -141 
Q 4331 0 4213 141 
Q 3416 103 2450 41 
Q 2175 22 1863 -28 
L 1688 416 
Q 1950 578 2131 822 
Q 2278 1025 2425 1278 
L 1056 1278 
L 1056 -822 
L 588 -822 
L 588 1691 
L 2650 1691 
Q 2784 1950 2916 2253 
L 825 2253 
L 825 4066 
L 1281 4066 
L 1281 2653 
L 5113 2653 
L 5113 4072 
L 5569 4072 
L 5569 2028 
L 5113 2028 
L 5113 2253 
L 3472 2253 
Q 3322 1963 3169 1691 
L 5800 1691 
L 5800 -122 
Q 5800 -791 5175 -791 
Q 4875 -791 4519 -778 
Q 4494 -559 4431 -297 
Q 4800 -334 5063 -334 
Q 5331 -334 5331 -53 
L 5331 1278 
L 2928 1278 
Q 2659 838 2381 459 
z
M 200 4734 
L 2919 4734 
Q 2788 4969 2669 5153 
L 3150 5372 
Q 3309 5141 3541 4734 
L 6200 4734 
L 6200 4309 
L 200 4309 
L 200 4734 
z
M 1613 3884 
L 1781 4216 
Q 2500 3984 3294 3700 
Q 3934 3956 4500 4247 
L 4688 3928 
Q 4269 3709 3816 3513 
Q 4281 3341 4775 3153 
L 4606 2797 
Q 3938 3072 3325 3303 
Q 2569 3000 1731 2747 
Q 1619 2947 1506 3103 
Q 2169 3288 2772 3503 
Q 2159 3719 1613 3884 
z
" transform="scale(0.015625)"/>
     <path id="MicrosoftYaHei-25b2" d="M 100 2703 
L 6313 2703 
L 6313 2153 
L 100 2153 
L 100 2703 
z
" transform="scale(0.015625)"/>
     <path id="MicrosoftYaHei-adc" d="M 106 -266 
Q 581 566 619 2241 
L 1081 2216 
Q 1059 1606 991 1091 
Q 1225 588 1613 288 
L 1613 2616 
L 138 2616 
L 138 3072 
L 1419 3072 
L 1419 3966 
L 356 3966 
L 356 4422 
L 1419 4422 
L 1419 5309 
L 1906 5309 
L 1906 4422 
L 2956 4422 
L 2956 3966 
L 1906 3966 
L 1906 3072 
L 3081 3072 
L 3081 2616 
L 2081 2616 
L 2081 1647 
L 3031 1647 
L 3031 1197 
L 2081 1197 
L 2081 16 
Q 2516 -159 3081 -166 
Q 4613 -178 6313 -141 
Q 6200 -422 6138 -634 
Q 4169 -641 2950 -616 
Q 1438 -588 884 478 
Q 709 -341 381 -853 
Q 256 -559 106 -266 
z
M 3850 1347 
Q 3850 1009 4188 1009 
L 5263 1009 
Q 5613 1009 5656 1316 
Q 5694 1597 5725 2153 
Q 5919 2066 6200 1972 
Q 6144 1366 6088 1084 
Q 5994 559 5325 559 
L 4069 559 
Q 3375 559 3375 1272 
L 3375 3303 
L 5325 3303 
L 5325 4491 
L 3256 4491 
L 3256 4941 
L 5800 4941 
L 5800 2641 
L 5325 2641 
L 5325 2853 
L 3850 2853 
L 3850 1347 
z
" transform="scale(0.015625)"/>
     <path id="MicrosoftYaHei-4d7" d="M 3406 -484 
Q 4103 84 4628 878 
Q 4381 1866 4347 3872 
L 2269 3872 
L 2269 2278 
Q 2269 366 1381 -809 
Q 1150 -566 1000 -466 
Q 1831 584 1831 2303 
L 1831 4297 
L 4338 4297 
Q 4331 4800 4331 5278 
L 4788 5278 
Q 4788 4803 4791 4297 
L 6300 4297 
L 6300 3872 
L 4794 3872 
Q 4806 2363 4972 1453 
Q 5403 2256 5688 3253 
L 6138 3097 
Q 5716 1794 5122 813 
Q 5281 250 5488 -47 
Q 5688 -291 5763 53 
Q 5831 422 5881 953 
Q 6175 847 6344 797 
Q 6256 134 6150 -297 
Q 6013 -791 5700 -784 
Q 5431 -791 5194 -478 
Q 4959 -128 4797 316 
Q 4347 -313 3813 -784 
Q 3619 -616 3406 -484 
z
M 2656 2347 
L 4069 2347 
L 4069 509 
L 3069 509 
L 3069 122 
L 2656 122 
L 2656 2347 
z
M 131 16 
Q 519 1059 925 2609 
Q 1163 2497 1388 2409 
Q 1106 1403 638 -153 
L 131 16 
z
M 244 4541 
L 631 4809 
Q 1069 4303 1506 3728 
L 1075 3416 
Q 563 4153 244 4541 
z
M 3656 897 
L 3656 1959 
L 3069 1959 
L 3069 897 
L 3656 897 
z
M 2544 3316 
L 4088 3316 
L 4088 2916 
L 2544 2916 
L 2544 3316 
z
M 5050 5041 
L 5369 5291 
Q 5681 4978 5963 4666 
L 5606 4384 
Q 5350 4709 5050 5041 
z
" transform="scale(0.015625)"/>
     <path id="MicrosoftYaHei-37a" d="M 1606 3531 
Q 1772 3531 1890 3415 
Q 2009 3300 2009 3138 
Q 2009 2975 1893 2858 
Q 1778 2741 1606 2741 
Q 1434 2741 1318 2858 
Q 1203 2975 1203 3138 
Q 1203 3300 1322 3415 
Q 1441 3531 1606 3531 
z
M 1931 775 
L 1403 -891 
L 966 -891 
L 1350 775 
L 1931 775 
z
" transform="scale(0.015625)"/>
     <path id="MicrosoftYaHei-7c4" d="M 1856 -816 
L 1363 -816 
L 1363 2419 
Q 909 1891 363 1403 
Q 231 1622 63 1859 
Q 1269 2869 1947 4097 
L 238 4097 
L 238 4559 
L 2181 4559 
Q 2359 4950 2488 5359 
L 3006 5241 
Q 2881 4894 2731 4559 
L 6263 4559 
L 6263 4097 
L 2506 4097 
Q 2313 3728 2081 3378 
L 5506 3378 
L 5506 41 
Q 5506 -734 4750 -734 
Q 4419 -741 3744 -741 
Q 3713 -528 3650 -228 
Q 4225 -272 4575 -272 
Q 5006 -272 5006 153 
L 5006 597 
L 1856 597 
L 1856 -816 
z
M 1856 1022 
L 5006 1022 
L 5006 1772 
L 1856 1772 
L 1856 1022 
z
M 5006 2941 
L 1856 2941 
L 1856 2197 
L 5006 2197 
L 5006 2941 
z
" transform="scale(0.015625)"/>
     <path id="MicrosoftYaHei-b92" d="M 2675 4984 
L 5638 4984 
L 5638 1872 
L 5175 1872 
L 5175 2041 
L 4119 2041 
Q 4313 1478 4650 1028 
Q 5213 1384 5838 1909 
L 6169 1516 
Q 5481 1034 4944 691 
Q 5488 141 6313 -191 
Q 6081 -416 5913 -647 
Q 4175 266 3675 2041 
L 3138 2041 
L 3138 -84 
Q 3556 103 4231 466 
Q 4238 178 4263 -28 
Q 3706 -297 3181 -609 
Q 3056 -678 2844 -872 
L 2488 -403 
Q 2675 -241 2675 9 
L 2675 4984 
z
M 2275 1603 
Q 2456 409 1681 266 
Q 1400 209 1050 253 
Q 1000 509 913 778 
Q 1244 697 1488 728 
Q 1913 809 1775 1622 
Q 1688 2122 1206 2747 
Q 1431 3428 1794 4566 
L 869 4566 
L 869 -891 
L 400 -891 
L 400 5003 
L 2294 5003 
L 2294 4566 
Q 1988 3684 1706 2828 
Q 2206 2147 2275 1603 
z
M 5175 2466 
L 5175 3309 
L 3138 3309 
L 3138 2466 
L 5175 2466 
z
M 5175 4559 
L 3138 4559 
L 3138 3728 
L 5175 3728 
L 5175 4559 
z
" transform="scale(0.015625)"/>
     <path id="MicrosoftYaHei-79e" d="M 344 4728 
L 2500 4728 
L 2500 -366 
L 2006 -366 
L 2006 153 
L 838 153 
L 838 -441 
L 344 -441 
L 344 4728 
z
M 2706 3941 
L 4925 3941 
L 4925 5322 
L 5425 5322 
L 5425 3941 
L 6313 3941 
L 6313 3478 
L 5425 3478 
L 5425 116 
Q 5425 -722 4625 -722 
Q 4263 -722 3563 -703 
Q 3531 -478 3463 -178 
Q 4119 -228 4488 -228 
Q 4925 -228 4925 216 
L 4925 3478 
L 2706 3478 
L 2706 3941 
z
M 838 616 
L 2006 616 
L 2006 2234 
L 838 2234 
L 838 616 
z
M 2006 4266 
L 838 4266 
L 838 2684 
L 2006 2684 
L 2006 4266 
z
M 3406 2878 
Q 3906 1966 4163 1422 
Q 4000 1347 3663 1172 
Q 3419 1766 2963 2653 
L 3406 2878 
z
" transform="scale(0.015625)"/>
     <path id="MicrosoftYaHei-b7f" d="M 1863 3647 
L 4513 3647 
L 4513 553 
L 2313 553 
L 2313 166 
L 1863 166 
L 1863 3647 
z
M 2388 4453 
L 2388 4922 
L 6013 4922 
L 6013 -28 
Q 6013 -816 5119 -816 
Q 4756 -816 4169 -803 
Q 4144 -616 4069 -297 
Q 4588 -334 5056 -334 
Q 5525 -334 5525 122 
L 5525 4453 
L 2388 4453 
z
M 419 4084 
L 906 4084 
L 906 -816 
L 419 -816 
L 419 4084 
z
M 2313 997 
L 4063 997 
L 4063 1884 
L 2313 1884 
L 2313 997 
z
M 4063 3203 
L 2313 3203 
L 2313 2328 
L 4063 2328 
L 4063 3203 
z
M 744 5003 
L 1100 5322 
Q 1575 4872 1981 4447 
L 1575 4091 
Q 1194 4541 744 5003 
z
" transform="scale(0.015625)"/>
     <path id="MicrosoftYaHei-4c4" d="M 638 4184 
L 2944 4184 
L 2944 5259 
L 3456 5259 
L 3456 4184 
L 5750 4184 
L 5750 59 
Q 5750 -734 4969 -728 
Q 4556 -728 3956 -716 
Q 3938 -503 3863 -172 
Q 4456 -222 4850 -228 
Q 5244 -241 5244 166 
L 5244 3709 
L 3444 3709 
Q 3419 3141 3306 2697 
Q 4413 1809 5094 1134 
L 4713 728 
Q 4044 1459 3156 2247 
Q 2731 1328 1538 647 
Q 1275 1009 1188 1097 
Q 2206 1634 2581 2291 
Q 2881 2772 2931 3709 
L 1144 3709 
L 1144 -784 
L 638 -784 
L 638 4184 
z
" transform="scale(0.015625)"/>
     <path id="MicrosoftYaHei-776" d="M 2244 2659 
Q 3044 4047 3400 5341 
L 3906 5197 
Q 3706 4619 3488 4091 
L 6213 4091 
L 6213 3628 
L 5478 3628 
Q 5384 1819 4550 681 
Q 5184 119 6350 -297 
Q 6156 -541 5994 -797 
Q 4881 -322 4219 300 
Q 3616 -294 2550 -853 
Q 2419 -647 2231 -434 
Q 3297 100 3878 672 
Q 3156 1575 2944 2916 
Q 2769 2575 2581 2259 
Q 2463 2441 2244 2659 
z
M 1681 5291 
L 2156 5291 
L 2156 -816 
L 1681 -816 
L 1681 1113 
Q 1300 900 906 641 
Q 744 522 588 359 
L 231 778 
Q 425 984 425 1316 
L 425 4416 
L 900 4416 
L 900 1216 
Q 1272 1413 1681 1634 
L 1681 5291 
z
M 4984 3628 
L 3322 3628 
Q 3413 2103 4203 1059 
Q 4916 2063 4984 3628 
z
" transform="scale(0.015625)"/>
     <path id="MicrosoftYaHei-9dd" d="M 3388 3453 
L 6263 3453 
L 6263 3041 
L 4956 3041 
Q 4875 2713 4797 2422 
L 5888 2422 
L 5888 -797 
L 5438 -797 
L 5438 -491 
L 3994 -491 
L 3994 -797 
L 3544 -797 
L 3544 2422 
L 4325 2422 
Q 4397 2719 4456 3041 
L 3388 3041 
L 3388 3453 
z
M 831 1641 
Q 1375 1709 1788 1791 
Q 1763 1566 1750 1366 
Q 863 1222 288 1103 
L 213 1553 
Q 566 1916 1072 2828 
Q 541 2791 200 2759 
L 88 3141 
Q 625 3947 1144 5291 
L 1613 5128 
Q 1088 4009 600 3191 
Q 819 3191 1272 3200 
Q 1444 3525 1631 3909 
L 2069 3709 
Q 1188 2178 831 1641 
z
M 2194 4503 
L 4078 4503 
Q 3919 4816 3688 5159 
L 4100 5359 
Q 4406 4966 4569 4666 
L 4247 4503 
L 6138 4503 
L 6138 3591 
L 5663 3591 
L 5663 4078 
L 2669 4078 
L 2669 3503 
L 2194 3503 
L 2194 4503 
z
M 1863 1753 
Q 2481 2641 2931 3797 
L 3369 3653 
Q 3144 3113 2900 2628 
L 2900 -809 
L 2463 -809 
L 2463 1838 
Q 2288 1547 2106 1284 
Q 2013 1522 1863 1753 
z
M 3994 -84 
L 5438 -84 
L 5438 766 
L 3994 766 
L 3994 -84 
z
M 5438 2016 
L 3994 2016 
L 3994 1166 
L 5438 1166 
L 5438 2016 
z
M 106 191 
Q 1181 366 2056 553 
Q 2019 284 2013 159 
Q 1463 28 219 -284 
L 106 191 
z
" transform="scale(0.015625)"/>
     <path id="MicrosoftYaHei-841" d="M 3225 5316 
L 3744 5316 
L 3744 2672 
Q 4959 3550 5744 4509 
L 6188 4178 
Q 5175 3063 3744 2056 
L 3744 247 
Q 3744 -166 4106 -166 
L 5175 -166 
Q 5588 -166 5650 203 
Q 5725 678 5763 1247 
Q 6025 1147 6300 1066 
Q 6244 484 6150 22 
Q 6019 -622 5319 -622 
L 3944 -622 
Q 3225 -622 3225 159 
L 3225 5316 
z
M 1063 5153 
L 1063 3278 
L 2825 3278 
L 2825 2809 
L 1063 2809 
L 1063 153 
Q 1713 428 2763 928 
Q 2763 634 2788 366 
Q 1869 -3 1231 -328 
Q 956 -472 725 -672 
L 344 -184 
Q 544 -34 544 272 
L 544 5153 
L 1063 5153 
z
" transform="scale(0.015625)"/>
     <path id="MicrosoftYaHei-486" d="M 2381 1841 
L 2631 2191 
Q 2916 1997 3247 1738 
Q 3488 2378 3581 3128 
L 2703 3128 
Q 2350 1984 1831 1291 
Q 1700 1491 1531 1678 
Q 2238 2694 2578 4522 
L 1900 4522 
L 1900 4959 
L 4319 4959 
L 4319 4522 
L 3044 4522 
Q 2947 4009 2828 3559 
L 4044 3559 
L 4044 3128 
Q 3788 666 2038 -822 
Q 1900 -634 1694 -416 
Q 2578 297 3063 1303 
Q 2753 1556 2381 1841 
z
M 88 2291 
Q 894 3659 1281 5322 
L 1744 5234 
Q 1578 4534 1325 3853 
L 1325 -809 
L 900 -809 
L 900 2847 
Q 625 2275 288 1716 
Q 213 1966 88 2291 
z
M 5575 5303 
L 6031 5303 
L 6031 84 
Q 6031 -391 5881 -566 
Q 5750 -728 5356 -734 
Q 5088 -741 4488 -722 
Q 4463 -466 4400 -203 
Q 4881 -253 5188 -253 
Q 5431 -259 5500 -166 
Q 5575 -84 5575 234 
L 5575 5303 
z
M 4913 653 
L 4469 653 
L 4469 4322 
L 4913 4322 
L 4913 653 
z
" transform="scale(0.015625)"/>
     <path id="MicrosoftYaHei-451" d="M 4294 2916 
L 4963 4366 
L 3406 4366 
Q 3406 2003 3144 1059 
Q 2906 34 2025 -803 
Q 1850 -616 1644 -422 
Q 2469 403 2675 1328 
Q 2913 2166 2913 4366 
L 2200 4366 
L 2200 4828 
L 5506 4828 
L 5506 4366 
L 4831 2909 
L 6031 2909 
Q 6000 1497 5950 616 
Q 5900 -122 5675 -391 
Q 5444 -672 4894 -672 
Q 4556 -672 3956 -641 
Q 3913 -372 3856 -91 
Q 4344 -166 4844 -172 
Q 5425 -178 5456 659 
Q 5494 1222 5525 2447 
L 4294 2447 
L 4294 2916 
z
M 88 2228 
Q 931 3484 1438 5253 
L 1938 5103 
Q 1713 4391 1450 3763 
L 1450 -791 
L 963 -791 
L 963 2741 
Q 656 2169 306 1684 
Q 213 1953 88 2228 
z
" transform="scale(0.015625)"/>
     <path id="MicrosoftYaHei-439" d="M 125 2759 
L 3031 2759 
L 3031 4372 
L 625 4372 
L 625 4866 
L 5800 4866 
L 5800 4372 
L 3556 4372 
L 3556 2759 
L 6275 2759 
L 6275 2266 
L 3556 2266 
L 3556 122 
Q 3556 -303 3400 -491 
Q 3225 -709 2744 -722 
Q 2463 -722 1688 -716 
Q 1656 -428 1588 -147 
Q 2294 -197 2569 -197 
Q 2850 -197 2944 -91 
Q 3031 -3 3031 303 
L 3031 2266 
L 125 2266 
L 125 2759 
z
" transform="scale(0.015625)"/>
     <path id="MicrosoftYaHei-ba9" d="M 406 4234 
L 2938 4234 
L 2938 4616 
L 600 4616 
L 600 5016 
L 5700 5016 
L 5700 4616 
L 3413 4616 
L 3413 4234 
L 6019 4234 
L 6019 3072 
L 5556 3072 
L 5556 3834 
L 3413 3834 
L 3413 2959 
L 2938 2959 
L 2938 3834 
L 869 3834 
L 869 3072 
L 406 3072 
L 406 4234 
z
M 1650 3 
L 1844 384 
Q 2500 178 3188 -47 
L 4338 678 
L 1238 678 
L 1238 1078 
L 3256 1078 
Q 3006 1397 2694 1747 
L 3044 2009 
Q 3350 1684 3638 1341 
L 3269 1078 
L 4994 1078 
L 4994 609 
L 3675 -216 
Q 4056 -347 4450 -491 
L 4256 -916 
Q 2744 -347 1650 3 
z
M 3544 2834 
L 3456 2722 
Q 4538 1722 6350 1391 
Q 6169 1116 6044 903 
Q 4281 1416 3200 2428 
Q 2206 1516 325 803 
Q 206 1003 50 1234 
Q 2013 1841 3038 2834 
L 3544 2834 
z
M 1075 2859 
L 2456 2859 
L 2456 2497 
L 1075 2497 
L 1075 2859 
z
M 3894 2859 
L 5263 2859 
L 5263 2497 
L 3894 2497 
L 3894 2859 
z
M 1150 3528 
L 2456 3528 
L 2456 3166 
L 1150 3166 
L 1150 3528 
z
M 3894 3528 
L 5188 3528 
L 5188 3166 
L 3894 3166 
L 3894 3528 
z
" transform="scale(0.015625)"/>
     <path id="MicrosoftYaHei-6f9e" d="M 1219 863 
Q 1525 863 1750 625 
Q 1975 388 1975 72 
Q 1975 -284 1747 -507 
Q 1519 -731 1197 -731 
Q 875 -731 642 -503 
Q 409 -275 409 66 
Q 409 413 656 638 
Q 903 863 1219 863 
z
M 1209 -275 
Q 1328 -275 1431 -184 
Q 1534 -94 1534 50 
Q 1534 209 1434 304 
Q 1334 400 1191 400 
Q 1056 400 959 304 
Q 863 209 863 53 
Q 863 -100 977 -187 
Q 1091 -275 1209 -275 
z
" transform="scale(0.015625)"/>
    </defs>
    <use xlink:href="#MicrosoftYaHei-b2c"/>
    <use xlink:href="#MicrosoftYaHei-686" transform="translate(100 0)"/>
    <use xlink:href="#MicrosoftYaHei-5dd" transform="translate(200 0)"/>
    <use xlink:href="#MicrosoftYaHei-634" transform="translate(300 0)"/>
    <use xlink:href="#MicrosoftYaHei-b9a" transform="translate(400 0)"/>
    <use xlink:href="#MicrosoftYaHei-4f1" transform="translate(500 0)"/>
    <use xlink:href="#MicrosoftYaHei-53d" transform="translate(600 0)"/>
    <use xlink:href="#MicrosoftYaHei-8b5" transform="translate(700 0)"/>
    <use xlink:href="#MicrosoftYaHei-919" transform="translate(800 0)"/>
    <use xlink:href="#MicrosoftYaHei-ae5" transform="translate(900 0)"/>
    <use xlink:href="#MicrosoftYaHei-959" transform="translate(1000 0)"/>
    <use xlink:href="#MicrosoftYaHei-25b2" transform="translate(1100 0)"/>
    <use xlink:href="#MicrosoftYaHei-adc" transform="translate(1200 0)"/>
    <use xlink:href="#MicrosoftYaHei-4d7" transform="translate(1300 0)"/>
    <use xlink:href="#MicrosoftYaHei-634" transform="translate(1400 0)"/>
    <use xlink:href="#MicrosoftYaHei-37a" transform="translate(1500 0)"/>
    <use xlink:href="#MicrosoftYaHei-7c4" transform="translate(1600 0)"/>
    <use xlink:href="#MicrosoftYaHei-b92" transform="translate(1700 0)"/>
    <use xlink:href="#MicrosoftYaHei-79e" transform="translate(1800 0)"/>
    <use xlink:href="#MicrosoftYaHei-b7f" transform="translate(1900 0)"/>
    <use xlink:href="#MicrosoftYaHei-4c4" transform="translate(2000 0)"/>
    <use xlink:href="#MicrosoftYaHei-776" transform="translate(2100 0)"/>
    <use xlink:href="#MicrosoftYaHei-9dd" transform="translate(2200 0)"/>
    <use xlink:href="#MicrosoftYaHei-841" transform="translate(2300 0)"/>
    <use xlink:href="#MicrosoftYaHei-486" transform="translate(2400 0)"/>
    <use xlink:href="#MicrosoftYaHei-451" transform="translate(2500 0)"/>
    <use xlink:href="#MicrosoftYaHei-5dd" transform="translate(2600 0)"/>
    <use xlink:href="#MicrosoftYaHei-439" transform="translate(2700 0)"/>
    <use xlink:href="#MicrosoftYaHei-ba9" transform="translate(2800 0)"/>
    <use xlink:href="#MicrosoftYaHei-6f9e" transform="translate(2900 0)"/>
   </g>
  </g>
 </g>
 <defs>
  <clipPath id="pf5eb446df8">
   <rect x="90.72" y="370.656" width="342.72" height="162"/>
  </clipPath>
 </defs>
</svg>
